<svg width="37" height="37" viewBox="0 0 37 37" fill="none" xmlns="http://www.w3.org/2000/svg">
<path fill-rule="evenodd" clip-rule="evenodd" d="M13.6804 21.525C12.7589 20.6988 12.0304 20.1028 11.8754 18.3856H11.7759C11.5473 18.3878 11.3221 18.3287 11.1235 18.2145C10.7949 18.0058 10.5424 17.6952 10.4038 17.3294C10.0703 16.5593 9.81872 14.5382 10.6437 13.9599L10.4887 13.8537L10.4711 13.6294C10.4389 13.2223 10.4302 12.7443 10.4214 12.2132C10.3921 10.3131 10.3541 8.00578 8.83574 7.5455L8.18627 7.34782L8.6134 6.81083C9.7363 5.37909 11.0117 4.07601 12.4166 2.92502C13.8589 1.76842 15.3567 1.00129 16.8078 0.774105C17.5649 0.648897 18.3399 0.692024 19.0787 0.900469C19.8175 1.10891 20.5022 1.47764 21.0849 1.98086C21.505 2.32733 21.8893 2.71583 22.2317 3.14041C22.9108 3.21559 23.5665 3.43415 24.1563 3.78186C24.746 4.12958 25.2565 4.59865 25.6546 5.15855C26.1596 5.84036 26.5373 6.60921 26.7692 7.42748C27.0098 8.26235 27.1087 9.13221 27.0618 10.0003C27.0159 11.5669 26.381 13.0573 25.286 14.1694C25.4786 14.1733 25.6678 14.2217 25.8389 14.311C26.4708 14.6533 26.4913 15.3938 26.3245 16.0164C26.1607 16.5327 25.953 17.1376 25.757 17.6421C25.5171 18.3266 25.1719 18.4535 24.4932 18.3797C24.4581 20.0674 23.6828 20.5336 22.6413 21.525C22.6852 24.0683 13.619 23.7703 13.6746 21.525H13.6804ZM13.2094 23.6228L15.9067 31.4829L17.2613 26.8713L16.6001 26.1396C16.0998 25.4019 16.2724 24.5669 17.1852 24.4165C17.5186 24.3828 17.8542 24.3759 18.1887 24.3958C18.5567 24.3723 18.9262 24.3862 19.2916 24.4371C20.1517 24.6289 20.2424 25.4698 19.8123 26.1396L19.1482 26.8713L20.5027 31.4829L22.9573 23.6228C24.7126 25.219 30.9176 25.5406 32.8573 26.6323C35.5429 28.1488 35.4697 33.9436 36.0578 36.664H0.108887C0.693992 33.9761 0.632556 28.1341 3.30941 26.6323C5.69372 25.2928 11.2581 25.396 13.2094 23.6228Z" fill="#052822"/>
</svg>
