<svg width="33" height="41" viewBox="0 0 33 41" fill="none" xmlns="http://www.w3.org/2000/svg">
<path d="M16.3756 0.824299C17.1826 0.82017 17.9826 0.975084 18.7299 1.2802C19.4771 1.58531 20.1569 2.03464 20.7306 2.60255C21.3042 3.17045 21.7603 3.8458 22.073 4.59003C22.3856 5.33426 22.5487 6.1328 22.5528 6.94005C22.506 8.54826 21.8344 10.0749 20.6806 11.1959C19.5267 12.3169 17.9815 12.944 16.3729 12.944C14.7644 12.944 13.2191 12.3169 12.0653 11.1959C10.9114 10.0749 10.2399 8.54826 10.1931 6.94005C10.2028 5.30925 10.8594 3.74901 12.0187 2.60223C13.178 1.45545 14.7451 0.815957 16.3756 0.824299ZM30.9772 25.0416C30.1986 25.4023 29.1011 25.303 27.8416 24.336L23.5876 21.1997V30.7653C23.5876 30.7866 23.5834 30.8077 23.5752 30.8274C23.5671 30.847 23.5551 30.8649 23.5401 30.8799C23.5251 30.895 23.5072 30.9069 23.4875 30.915C23.4679 30.9232 23.4468 30.9274 23.4255 30.9274H21.9361V38.4022C21.8808 38.9878 21.6092 39.5317 21.1743 39.9276C20.7394 40.3234 20.1724 40.5428 19.5844 40.5428C18.9963 40.5428 18.4294 40.3234 17.9945 39.9276C17.5595 39.5317 17.2879 38.9878 17.2326 38.4022V30.9274H15.5237V38.4022C15.4684 38.9878 15.1968 39.5317 14.7619 39.9276C14.3269 40.3234 13.76 40.5428 13.172 40.5428C12.5839 40.5428 12.017 40.3234 11.5821 39.9276C11.1471 39.5317 10.8755 38.9878 10.8202 38.4022V30.9274H9.32556C9.30428 30.9274 9.28322 30.9232 9.26356 30.915C9.24391 30.9069 9.22604 30.895 9.211 30.8799C9.19596 30.8649 9.18402 30.847 9.17588 30.8274C9.16774 30.8077 9.16355 30.7866 9.16355 30.7653V21.1631L4.87816 24.3464C3.69184 25.2821 2.58391 25.35 1.80522 24.9737C1.49983 24.8289 1.23301 24.614 1.02653 24.3464C0.826973 24.0831 0.686187 23.7801 0.613671 23.4578C0.514474 22.9996 0.55226 22.5224 0.722321 22.0855C0.892383 21.6487 1.1872 21.2715 1.57005 21.001L7.99291 16.098C9.61822 14.7703 13.1145 14.1326 16.5428 14.143C19.9711 14.1535 23.4464 14.8435 24.8 16.1659L31.134 20.9749C31.5272 21.2579 31.8315 21.6473 32.0111 22.0973C32.1907 22.5473 32.2381 23.0393 32.1479 23.5153C32.0816 23.8426 31.9442 24.1513 31.7455 24.4196C31.5434 24.6873 31.2799 24.9024 30.9772 25.0469V25.0416Z" fill="#052822"/>
</svg>
