<svg width="21" height="33" viewBox="0 0 21 33" fill="none" xmlns="http://www.w3.org/2000/svg">
<rect x="2.28662" y="2.28516" width="17.8158" height="28.796" fill="#052822"/>
<path d="M16.57 2.92885C17.0911 2.92885 17.5909 3.13587 17.9594 3.50438C18.3279 3.87289 18.5349 4.37269 18.5349 4.89383V28.4736C18.5349 28.9948 18.3279 29.4946 17.9594 29.8631C17.5909 30.2316 17.0911 30.4386 16.57 30.4386H4.78006C4.25892 30.4386 3.75912 30.2316 3.39061 29.8631C3.02211 29.4946 2.81508 28.9948 2.81508 28.4736V4.89383C2.81508 4.37269 3.02211 3.87289 3.39061 3.50438C3.75912 3.13587 4.25892 2.92885 4.78006 2.92885H16.57ZM4.78006 0.963867C3.73777 0.963867 2.73817 1.37792 2.00116 2.11493C1.26415 2.85194 0.850098 3.85154 0.850098 4.89383V28.4736C0.850098 29.5159 1.26415 30.5155 2.00116 31.2525C2.73817 31.9895 3.73777 32.4036 4.78006 32.4036H16.57C17.6123 32.4036 18.6119 31.9895 19.3489 31.2525C20.0859 30.5155 20.4999 29.5159 20.4999 28.4736V4.89383C20.4999 3.85154 20.0859 2.85194 19.3489 2.11493C18.6119 1.37792 17.6123 0.963867 16.57 0.963867L4.78006 0.963867Z" fill="#052822"/>
<path d="M10.6749 28.4739C11.1961 28.4739 11.6959 28.2669 12.0644 27.8984C12.4329 27.5299 12.6399 27.0301 12.6399 26.5089C12.6399 25.9878 12.4329 25.488 12.0644 25.1195C11.6959 24.751 11.1961 24.5439 10.6749 24.5439C10.1538 24.5439 9.654 24.751 9.28549 25.1195C8.91699 25.488 8.70996 25.9878 8.70996 26.5089C8.70996 27.0301 8.91699 27.5299 9.28549 27.8984C9.654 28.2669 10.1538 28.4739 10.6749 28.4739Z" fill="#B9EEE5"/>
</svg>
