<svg width="28" height="41" viewBox="0 0 28 41" fill="none" xmlns="http://www.w3.org/2000/svg">
<path d="M27.7878 20.6834C27.7878 17.5059 26.5967 14.6017 24.6385 12.3924C24.6349 12.3786 24.6316 12.3648 24.627 12.3511L23.0351 7.57529C22.8815 7.1146 22.5617 6.74581 22.1563 6.5236V2.53733C22.1563 1.5023 21.3141 0.660156 20.2791 0.660156H10.2675C9.23244 0.660156 8.3903 1.5023 8.3903 2.53733V6.52352C7.98482 6.74581 7.665 7.1146 7.51146 7.57529L5.91954 12.3511C5.915 12.3648 5.91164 12.3786 5.90804 12.3924C4.75561 13.6926 3.8688 15.2333 3.33435 16.929H2.13304C1.09793 16.929 0.255859 17.7711 0.255859 18.8062V22.5606C0.255859 23.5957 1.09793 24.4377 2.13304 24.4377H3.33435C3.8688 26.1336 4.75569 27.6744 5.9082 28.9747C5.9118 28.9884 5.91508 29.0021 5.91962 29.0157L7.51154 33.7916C7.66508 34.2522 7.98475 34.621 8.39022 34.8432V38.8294C8.39022 39.8645 9.23236 40.7066 10.2674 40.7066H20.279C21.314 40.7066 22.1562 39.8645 22.1562 38.8294V34.8433C22.5618 34.621 22.8816 34.2522 23.0352 33.7915L24.6272 29.0156C24.6318 29.0019 24.6352 28.9879 24.6388 28.9741C26.5969 26.7648 27.7878 23.8608 27.7878 20.6834ZM8.69862 7.97106C8.78395 7.71514 9.02251 7.54314 9.29228 7.54314H17.1502C17.4958 7.54314 17.7759 7.26297 17.7759 6.91741C17.7759 6.57186 17.4958 6.29169 17.1502 6.29169H9.64175V2.53733C9.64175 2.19232 9.92246 1.91161 10.2675 1.91161H20.2791C20.6241 1.91161 20.9048 2.19232 20.9048 2.53733V6.29169H19.6534C19.3079 6.29169 19.0277 6.57186 19.0277 6.91741C19.0277 7.26297 19.3079 7.54314 19.6534 7.54314H21.2543C21.524 7.54314 21.7626 7.71506 21.8479 7.97098L22.7397 10.6463C20.654 9.09072 18.0693 8.16887 15.2733 8.16887C12.4773 8.16887 9.89258 9.09072 7.80688 10.6463L8.69862 7.97106ZM2.13304 23.1863C1.78803 23.1863 1.50731 22.9056 1.50731 22.5606V18.8062C1.50731 18.4612 1.78803 18.1805 2.13304 18.1805H3.01038C2.8455 18.9895 2.75876 19.8264 2.75876 20.6834C2.75876 21.5403 2.8455 22.3773 3.01038 23.1863H2.13304ZM15.2733 9.42032C21.4838 9.42032 26.5363 14.4729 26.5363 20.6834C26.5363 26.8939 21.4838 31.9464 15.2733 31.9464C9.06279 31.9464 4.01021 26.8939 4.01021 20.6834C4.01021 14.4729 9.06279 9.42032 15.2733 9.42032ZM21.848 33.3958C21.7627 33.6517 21.5241 33.8236 21.2544 33.8236H19.6536C19.308 33.8236 19.0279 34.1038 19.0279 34.4493C19.0279 34.7949 19.308 35.0751 19.6536 35.0751H20.9048V38.8294C20.9048 39.1744 20.6241 39.4552 20.2791 39.4552H10.2675C9.92246 39.4552 9.64175 39.1744 9.64175 38.8294V35.0751H17.1504C17.4959 35.0751 17.7761 34.7949 17.7761 34.4493C17.7761 34.1038 17.4959 33.8236 17.1504 33.8236H9.29243C9.02267 33.8236 8.78411 33.6517 8.69878 33.3958L7.80704 30.7206C9.89274 32.276 12.4774 33.1979 15.2733 33.1979C18.0694 33.1979 20.6541 32.276 22.7398 30.7203L21.848 33.3958Z" fill="#052822"/>
<path d="M15.2728 30.6941C20.7933 30.6941 25.2845 26.203 25.2845 20.6825C25.2845 18.4956 24.5919 16.4179 23.2817 14.674C23.0741 14.3977 22.6818 14.342 22.4055 14.5496C22.1292 14.7572 22.0735 15.1495 22.2811 15.4258C23.3015 16.7838 23.8923 18.3739 24.0099 20.0568H23.4073C23.0617 20.0568 22.7816 20.337 22.7816 20.6825C22.7816 21.0281 23.0617 21.3082 23.4073 21.3082H24.0104C23.7031 25.6409 20.2312 29.1128 15.8986 29.4201V28.8169C15.8986 28.4714 15.6184 28.1912 15.2728 28.1912C14.9273 28.1912 14.6471 28.4714 14.6471 28.8169V29.4201C10.3144 29.1128 6.8426 25.6409 6.53529 21.3082H7.13841C7.48396 21.3082 7.76413 21.0281 7.76413 20.6825C7.76413 20.337 7.48396 20.0568 7.13841 20.0568H6.53529C6.8426 15.7241 10.3144 12.2523 14.6471 11.945V12.5481C14.6471 12.8936 14.9273 13.1738 15.2728 13.1738C15.6184 13.1738 15.8986 12.8936 15.8986 12.5481V11.9454C17.5811 12.063 19.1709 12.6536 20.5287 13.6735C20.8049 13.881 21.1972 13.8254 21.4048 13.549C21.6123 13.2727 21.5566 12.8805 21.2803 12.6729C19.5367 11.3632 17.4594 10.6709 15.2728 10.6709C9.75238 10.6709 5.26123 15.162 5.26123 20.6825C5.26123 26.203 9.75238 30.6941 15.2728 30.6941Z" fill="#B9EEE5"/>
<path d="M15.2732 14.4258C14.9276 14.4258 14.6475 14.7059 14.6475 15.0515V20.683C14.6475 20.6883 14.6481 20.6933 14.6482 20.6985C14.6486 20.7112 14.6491 20.7239 14.6502 20.7365C14.6509 20.7451 14.6519 20.7534 14.653 20.7618C14.6545 20.7735 14.6562 20.7852 14.6583 20.7969C14.6601 20.8062 14.662 20.8155 14.6642 20.8246C14.6666 20.8349 14.6692 20.8453 14.6722 20.8555C14.6751 20.8657 14.6784 20.8758 14.6818 20.8858C14.6848 20.8948 14.6881 20.9037 14.6916 20.9126C14.6959 20.9235 14.7006 20.9342 14.7054 20.9447C14.7091 20.9526 14.7128 20.9605 14.7168 20.9682C14.7225 20.9793 14.7286 20.9901 14.7349 21.0008C14.7376 21.0054 14.7398 21.0102 14.7427 21.0148L17.8713 26.0206C17.99 26.2105 18.1939 26.3147 18.4025 26.3147C18.5158 26.3147 18.6304 26.284 18.7335 26.2195C19.0266 26.0364 19.1156 25.6504 18.9325 25.3573L15.8989 20.5035V15.0515C15.8989 14.7059 15.6187 14.4258 15.2732 14.4258Z" fill="#B9EEE5"/>
</svg>
