<svg width="33" height="35" viewBox="0 0 33 35" fill="none" xmlns="http://www.w3.org/2000/svg">
<path d="M13.1618 4.50829C10.7832 4.50829 7.13638 5.88107 8.40455 14.3823C8.42397 14.5109 8.44938 14.6499 8.47554 14.7986C8.7072 16.0772 9.06441 18.0568 6.79113 19.6889C8.33729 20.9578 10.5396 22.2259 13.2156 22.7752C13.1099 23.3821 12.9772 23.984 12.8181 24.5792C12.6006 25.3773 12.1448 25.943 11.3302 26.1844C10.6128 26.3966 9.86103 26.5685 9.09131 26.7448C8.89328 26.7897 8.69375 26.8353 8.49347 26.8824C7.5332 27.1058 6.55424 27.3531 5.68663 27.7029C4.81677 28.0541 4.0082 28.5272 3.42381 29.2326C2.82896 29.9522 2.51062 30.8595 2.53229 31.9939C2.53976 32.3466 2.84167 32.6291 3.21233 32.6291H30.248C30.6187 32.6291 30.9206 32.3466 30.9281 31.9939C30.9497 30.8595 30.6321 29.9522 30.0365 29.2326C29.4529 28.5272 28.6436 28.0534 27.7745 27.7029C26.9061 27.3524 25.9272 27.105 24.9661 26.8816L24.3698 26.7448C23.5993 26.5685 22.8475 26.3966 22.1301 26.1844C21.3156 25.943 20.8597 25.3773 20.6423 24.5792C20.452 23.8706 20.3008 23.1521 20.1894 22.427C22.2355 21.8112 24.4101 20.7044 26.6692 18.9371L26.6588 18.9266C25.5983 17.9118 23.6105 16.0092 23.4693 11.4925C23.4693 5.27352 19.5041 -0.192206 13.1618 4.50829Z" fill="#052822" stroke="#052822" stroke-width="4" stroke-linejoin="round"/>
</svg>
