<svg width="48" height="48" viewBox="0 0 48 48" fill="none" xmlns="http://www.w3.org/2000/svg">
<circle cx="23.7539" cy="23.7539" r="23.2539" transform="matrix(-1 0 0 1 47.5078 0.417969)" stroke="#17C6AA"/>
<path d="M15.8327 24.879C15.4422 24.4885 15.4422 23.8553 15.8327 23.4648L22.1966 17.1008C22.5872 16.7103 23.2203 16.7103 23.6109 17.1008C24.0014 17.4913 24.0014 18.1245 23.6109 18.515L17.954 24.1719L23.6109 29.8287C24.0014 30.2193 24.0014 30.8524 23.6109 31.2429C23.2203 31.6335 22.5872 31.6335 22.1966 31.2429L15.8327 24.879ZM30.9683 25.1719L16.5398 25.1719L16.5398 23.1719L30.9683 23.1719L30.9683 25.1719Z" fill="#17C6AA"/>
</svg>
