<svg width="53" height="53" viewBox="0 0 53 53" fill="none" xmlns="http://www.w3.org/2000/svg">
<circle cx="26.4849" cy="26.8271" r="26.1465" fill="white"/>
<path fill-rule="evenodd" clip-rule="evenodd" d="M28.2094 14.834C27.7163 14.4678 27.1095 14.269 26.4848 14.269C25.8601 14.269 25.2533 14.4678 24.7602 14.834L12.986 23.5755C11.9299 24.3625 12.5113 25.9781 13.8496 25.9781H15.2498V36.7038C15.2498 37.415 15.5457 38.097 16.0725 38.5999C16.5992 39.1027 17.3136 39.3852 18.0586 39.3852H25.0804V30.0002C25.0804 29.6446 25.2284 29.3036 25.4917 29.0522C25.7551 28.8007 26.1123 28.6595 26.4848 28.6595C26.8572 28.6595 27.2145 28.8007 27.4778 29.0522C27.7412 29.3036 27.8892 29.6446 27.8892 30.0002V39.3852H34.911C35.6559 39.3852 36.3704 39.1027 36.8971 38.5999C37.4238 38.097 37.7198 37.415 37.7198 36.7038V25.9781H39.1199C40.4569 25.9781 41.0411 24.3625 39.9836 23.5768L28.2094 14.834Z" fill="#129E88"/>
</svg>
