<svg width="41" height="35" viewBox="0 0 41 35" fill="none" xmlns="http://www.w3.org/2000/svg">
<path d="M26.0974 11.0291L26.7392 11.4983C26.944 11.3067 27.0981 11.0779 27.1804 10.8249L28.5712 6.55587L28.5713 6.55572C28.6393 6.34682 28.6069 6.08943 28.4156 5.85944C28.2242 5.62945 27.9364 5.50216 27.6647 5.46625L27.6645 5.46623L24.184 5.0069C24.1831 5.00678 24.1823 5.00667 24.1814 5.00655C23.9289 4.97283 23.6933 5.01569 23.5077 5.10242C23.3214 5.18951 23.1649 5.33032 23.0846 5.51492L23.0835 5.51741C22.932 5.87074 22.6026 6.19711 22.1458 6.41294C21.6892 6.62872 21.173 6.70213 20.7144 6.6424C20.2611 6.58233 19.9168 6.40162 19.7083 6.17238C19.5006 5.94408 19.3998 5.6375 19.4765 5.29378L19.4769 5.29198C19.5229 5.08264 19.4683 4.83721 19.2739 4.62531C19.0813 4.41537 18.8087 4.30032 18.552 4.26677C18.551 4.26665 18.5501 4.26652 18.5492 4.2664L15.0676 3.80534L15.067 3.80526C14.8011 3.77022 14.5539 3.81978 14.3633 3.91687C14.1726 4.01396 14.0147 4.17071 13.948 4.3751L13.948 4.37524L12.5571 8.6443C12.4746 8.89766 12.4653 9.17218 12.547 9.44512L12.5474 9.44651C12.5574 9.47962 12.561 9.5285 12.541 9.5903C12.5209 9.65251 12.4784 9.72191 12.408 9.78801C12.2036 9.9795 12.0497 10.208 11.9671 10.4605L11.9669 10.4611L8.39887 21.408L8.3988 21.4082C8.33081 21.6171 8.36313 21.8745 8.55451 22.1045C8.74589 22.3345 9.03369 22.4618 9.30541 22.4977L9.3056 22.4977L12.7861 22.9571C12.7869 22.9572 12.7877 22.9573 12.7885 22.9574C13.0411 22.9911 13.2767 22.9483 13.4623 22.8615C13.6487 22.7744 13.8052 22.6336 13.8855 22.449L13.8863 22.4471C14.0384 22.0936 14.3684 21.7673 14.8256 21.5519C15.283 21.3364 15.7996 21.2636 16.2582 21.3241C16.712 21.384 17.0567 21.5649 17.2654 21.7944C17.473 22.0227 17.5736 22.3295 17.4966 22.6733L17.4961 22.6755C17.4501 22.8849 17.5047 23.1303 17.6991 23.3422C17.8919 23.5524 18.1649 23.6674 18.4219 23.7008C18.4225 23.7009 18.4232 23.701 18.4239 23.7011L21.9044 24.1604L21.9045 24.1605C22.1704 24.1955 22.4176 24.146 22.6083 24.0489C22.7989 23.9518 22.9569 23.795 23.0235 23.5906L23.0236 23.5905L26.5909 12.6419L26.5911 12.6413C26.6733 12.3879 26.6824 12.1136 26.6008 11.8409L26.6004 11.8394C26.5904 11.8063 26.5868 11.7574 26.6068 11.6956C26.6269 11.6333 26.6694 11.5638 26.7399 11.4977L26.0974 11.0291ZM26.0974 11.0291C25.9598 11.1582 25.8616 11.3076 25.8106 11.4654C25.7595 11.6232 25.757 11.7851 25.8032 11.9382L27.6126 6.12912C27.6702 6.13673 27.7197 6.1616 27.7502 6.19828C27.7807 6.23495 27.7897 6.28042 27.7753 6.32468L26.3845 10.5938C26.3332 10.7513 26.2349 10.9004 26.0974 11.0291ZM13.353 8.87556C13.3017 9.03306 13.2988 9.19469 13.3445 9.34763C13.3908 9.50076 13.3883 9.66265 13.3372 9.82046C13.2861 9.97826 13.188 10.1277 13.0504 10.2568L13.353 8.87556Z" stroke="white" stroke-width="1.5" stroke-miterlimit="10"/>
<path d="M24.2778 32.9928L21.324 31.4435C21.2776 31.4194 21.2452 31.3831 21.2331 31.3419C21.2211 31.3007 21.2303 31.2576 21.2589 31.2212C21.6065 30.7839 21.7203 30.2645 21.5775 29.7671C21.4346 29.2697 21.0457 28.831 20.4886 28.5388C19.9315 28.2466 19.2473 28.1225 18.573 28.1913C17.8986 28.2601 17.284 28.5167 16.852 28.9098L24.2778 32.9928ZM24.2778 32.9928C24.3266 33.0183 24.387 33.0284 24.4458 33.0207M24.2778 32.9928L24.4458 33.0207M24.591 32.9517L33.0637 23.9262C33.1854 23.7962 33.2651 23.6468 33.2965 23.4898C33.3274 23.3326 33.407 23.183 33.5287 23.0528C33.6505 22.9226 33.8112 22.8154 33.9981 22.7397L24.591 32.9517ZM24.591 32.9517C24.5568 32.9882 24.5045 33.013 24.4458 33.0207M24.591 32.9517L24.4458 33.0207M22.1342 17.137L22.4838 17.8205L16.2331 29.5782C16.2338 29.5786 16.2345 29.5789 16.2352 29.5793C16.444 29.6893 16.665 29.7209 16.8565 29.702C17.049 29.6829 17.2454 29.6095 17.4006 29.4692L17.4023 29.4677C17.7152 29.1829 18.1847 28.9789 18.7227 28.924C19.261 28.869 19.7805 28.9722 20.1744 29.1788C20.5645 29.3834 20.7723 29.6535 20.8433 29.9008C20.9134 30.1451 20.8724 30.4439 20.6375 30.7395L20.636 30.7414C20.4948 30.9205 20.4139 31.185 20.5 31.4793C20.5849 31.7696 20.7983 31.9731 21.011 32.0841C21.0116 32.0844 21.0122 32.0848 21.0128 32.0851L23.9636 33.6328L23.9638 33.6329C24.1836 33.7481 24.417 33.7771 24.617 33.7509C24.8171 33.7247 25.0234 33.638 25.1776 33.4738L25.1777 33.4737L33.6503 24.4481L33.6508 24.4476C33.8447 24.2407 33.9882 23.9851 34.0464 23.6933L34.0467 23.6916C34.051 23.6698 34.0667 23.6269 34.1162 23.5739C34.1659 23.5208 34.2426 23.4658 34.3471 23.4234C34.6157 23.315 34.8602 23.1561 35.054 22.9496C35.054 22.9496 35.0541 22.9495 35.0541 22.9495L38.3576 19.4303L38.3577 19.4301C38.5154 19.2621 38.625 18.9971 38.5519 18.6853C38.4788 18.3735 38.2551 18.1522 38.0303 18.0342L38.0301 18.0342L35.0793 16.4865C35.0786 16.4861 35.0779 16.4858 35.0772 16.4854C34.8684 16.3754 34.6474 16.3437 34.4559 16.3627C34.2634 16.3818 34.067 16.4552 33.9118 16.5955L33.9097 16.5974C33.5973 16.8822 33.1283 17.0865 32.5906 17.1419C32.0527 17.1974 31.5333 17.0949 31.1388 16.8889C30.7495 16.6844 30.542 16.4146 30.471 16.1676C30.4008 15.9233 30.4417 15.6246 30.6762 15.3291L30.6774 15.3276C30.8186 15.1484 30.8995 14.8839 30.8134 14.5896C30.7285 14.2996 30.5155 14.0962 30.3031 13.9851C30.3022 13.9847 30.3014 13.9843 30.3006 13.9838L27.3496 12.4342L27.3491 12.4339C27.1293 12.3187 26.8959 12.2897 26.6958 12.3159C26.4958 12.3421 26.2895 12.4287 26.1353 12.593L26.1352 12.5931L22.8317 16.1124C22.8317 16.1124 22.8316 16.1124 22.8316 16.1124C22.6374 16.3193 22.4937 16.5749 22.4355 16.867L22.4352 16.8685C22.4309 16.8903 22.4152 16.9333 22.3656 16.9863C22.3159 17.0394 22.2392 17.0944 22.1345 17.1368C22.1344 17.1369 22.1343 17.1369 22.1342 17.137Z" stroke="white" stroke-width="1.5" stroke-miterlimit="10"/>
<path d="M24.189 18.1559L23.0839 17.5763ZM27.1354 19.7013L26.3986 19.3152ZM30.082 21.2471L29.3456 20.8605ZM33.3971 22.9855L32.2921 22.4059Z" fill="white"/>
<path d="M24.189 18.1559L23.0839 17.5763M27.1354 19.7013L26.3986 19.3152M30.082 21.2471L29.3456 20.8605M33.3971 22.9855L32.2921 22.4059" stroke="white" stroke-width="0.8" stroke-miterlimit="10" stroke-linecap="round"/>
</svg>
