<svg width="53" height="54" viewBox="0 0 53 54" fill="none" xmlns="http://www.w3.org/2000/svg">
<circle cx="26.7507" cy="26.9346" r="26.1465" fill="white"/>
<path d="M32.0125 29.4462C33.7073 29.4463 35.3368 30.071 36.5609 31.1901C37.7851 32.3092 38.5095 33.8362 38.5831 35.4527L38.5896 35.7252V36.9811C38.5898 37.6147 38.3392 38.225 37.8878 38.6896C37.4365 39.1543 36.8179 39.4389 36.1561 39.4864L35.9588 39.4927H17.5427C16.879 39.4929 16.2397 39.2536 15.753 38.8227C15.2663 38.3918 14.9682 37.8013 14.9184 37.1694L14.9118 36.9811V35.7252C14.9119 34.1072 15.5663 32.5516 16.7385 31.3829C17.9107 30.2143 19.5103 29.5227 21.2036 29.4525L21.489 29.4462H32.0125ZM26.7507 14.3765C28.4951 14.3765 30.168 15.038 31.4015 16.2156C32.6349 17.3931 33.3279 18.9902 33.3279 20.6555C33.3279 22.3208 32.6349 23.9179 31.4015 25.0955C30.168 26.273 28.4951 26.9346 26.7507 26.9346C25.0064 26.9346 23.3334 26.273 22.1 25.0955C20.8665 23.9179 20.1736 22.3208 20.1736 20.6555C20.1736 18.9902 20.8665 17.3931 22.1 16.2156C23.3334 15.038 25.0064 14.3765 26.7507 14.3765Z" fill="#129E88"/>
</svg>
