<svg width="31" height="28" viewBox="0 0 31 28" fill="none" xmlns="http://www.w3.org/2000/svg">
<path fill-rule="evenodd" clip-rule="evenodd" d="M17.4498 2.41426C16.9568 2.0481 16.3499 1.8493 15.7253 1.8493C15.1006 1.8493 14.4937 2.0481 14.0007 2.41426L2.22643 11.1557C1.17035 11.9427 1.75176 13.5583 3.09012 13.5583H4.49028V24.2841C4.49028 24.9952 4.7862 25.6773 5.31294 26.1801C5.83969 26.683 6.5541 26.9655 7.29903 26.9655H14.3209V17.5805C14.3209 17.2249 14.4688 16.8839 14.7322 16.6324C14.9956 16.381 15.3528 16.2397 15.7253 16.2397C16.0977 16.2397 16.4549 16.381 16.7183 16.6324C16.9817 16.8839 17.1296 17.2249 17.1296 17.5805V26.9655H24.1515C24.8964 26.9655 25.6108 26.683 26.1376 26.1801C26.6643 25.6773 26.9602 24.9952 26.9602 24.2841V13.5583H28.3604C29.6974 13.5583 30.2816 11.9427 29.2241 11.1571L17.4498 2.41426Z" stroke="white" stroke-width="2"/>
</svg>
