<svg width="53" height="54" viewBox="0 0 53 54" fill="none" xmlns="http://www.w3.org/2000/svg">
<circle cx="26.6807" cy="26.9346" r="26.1465" fill="white"/>
<path d="M24.2517 14.5283L24.252 14.5271C24.2862 14.3672 24.2448 14.1855 24.1069 14.031C23.97 13.8777 23.7733 13.7903 23.5806 13.7645C23.5801 13.7644 23.5795 13.7644 23.579 13.7643L19.8398 13.2553L19.8393 13.2552C19.6392 13.2281 19.4486 13.2662 19.2991 13.3444C19.1497 13.4227 19.0292 13.5475 18.9791 13.7055L18.979 13.7056L17.4859 18.4167C17.4859 18.4168 17.4859 18.4168 17.4859 18.4168C17.4101 18.6559 17.4031 18.9101 17.4755 19.1587L17.4757 19.1596C17.5019 19.2488 17.5029 19.3515 17.4687 19.4602C17.4344 19.5692 17.3661 19.6791 17.2638 19.7779C17.071 19.9635 16.9283 20.1827 16.8524 20.4212L16.8523 20.4216L13.0218 32.502L13.0217 32.5021C12.9707 32.6631 12.9967 32.8545 13.1325 33.0223C13.2683 33.19 13.4754 33.2866 13.6792 33.3142L13.6793 33.3143L17.4173 33.8213C17.4178 33.8214 17.4184 33.8215 17.419 33.8216C17.6089 33.8477 17.7903 33.8149 17.9357 33.745C18.0815 33.675 18.2015 33.5627 18.2623 33.419L18.2629 33.4177C18.4513 32.9674 18.8535 32.5641 19.3984 32.3002C19.9433 32.0363 20.5696 31.9413 21.1433 32.0192C21.714 32.0966 22.1804 32.3362 22.4742 32.6684C22.7675 32.9999 22.8923 33.4275 22.7941 33.8778L22.7938 33.8793C22.7596 34.0392 22.801 34.2208 22.9389 34.3753C23.0758 34.5287 23.2726 34.6161 23.4653 34.6418C23.4658 34.6419 23.4663 34.642 23.4668 34.642L27.2048 35.1491L27.2049 35.1492C27.405 35.1763 27.5956 35.1382 27.7451 35.06C27.8945 34.9817 28.015 34.8569 28.0652 34.6988L28.0652 34.6987L31.8949 22.6165L31.8951 22.6161C31.9705 22.377 31.9774 22.1228 31.9051 21.8743L31.9048 21.8733C31.8786 21.7841 31.8776 21.6814 31.9118 21.5727C31.9461 21.4637 32.0144 21.3539 32.1167 21.2551C32.3095 21.0695 32.4521 20.8502 32.5277 20.6115L34.0209 15.9004L34.0209 15.9003C34.0719 15.7393 34.0459 15.5479 33.9101 15.3801C33.7743 15.2124 33.5672 15.1159 33.3634 15.0882L33.3633 15.0882L29.6254 14.5811C29.625 14.581 29.6245 14.581 29.6241 14.5809C29.4341 14.5547 29.2524 14.5875 29.1069 14.6574C28.9611 14.7274 28.8411 14.8398 28.7803 14.9834L28.7796 14.9851C28.5917 15.4352 28.1903 15.8386 27.646 16.103C27.1018 16.3674 26.476 16.4631 25.9022 16.3861C25.332 16.3086 24.866 16.0691 24.5722 15.7372C24.279 15.4058 24.154 14.9784 24.2517 14.5283ZM18.0118 18.5661C17.9567 18.7399 17.9536 18.9183 18.0027 19.087C18.0523 19.256 18.0496 19.4347 17.9948 19.6088C17.94 19.783 17.8346 19.9478 17.687 20.0903C17.5392 20.2325 17.4335 20.397 17.3782 20.5709L18.0118 18.5661Z" fill="#129E88" stroke="white" stroke-miterlimit="10"/>
<path d="M19.5604 19.8186L18.1611 19.6288L19.5604 19.8186ZM23.2914 20.3248L22.3586 20.1986L23.2914 20.3248ZM27.0227 20.8313L26.0901 20.7044L27.0227 20.8313ZM31.2204 21.4004L29.8211 21.2106L31.2204 21.4004Z" fill="white"/>
<path d="M19.5604 19.8186L18.1611 19.6288M23.2914 20.3248L22.3586 20.1986M27.0227 20.8313L26.0901 20.7044M31.2204 21.4004L29.8211 21.2106" stroke="white" stroke-width="0.8" stroke-miterlimit="10" stroke-linecap="round"/>
<path d="M37.417 23.6637L37.4178 23.6627C37.5231 23.5254 37.5774 23.3317 37.5178 23.1223C37.4588 22.9153 37.3089 22.7637 37.1483 22.6775C37.1478 22.6772 37.1473 22.6769 37.1467 22.6766L33.9773 20.9658L33.977 20.9656C33.8105 20.8759 33.6283 20.851 33.4682 20.8726C33.308 20.8942 33.1477 20.9652 33.0309 21.0931L33.0308 21.0932L29.4843 24.9768C29.4843 24.9768 29.4843 24.9768 29.4843 24.9769C29.3053 25.1728 29.1783 25.409 29.1274 25.6712L29.1272 25.6723C29.1111 25.7565 29.067 25.85 28.9843 25.9408C28.9016 26.0318 28.7855 26.1137 28.641 26.1739C28.3847 26.2803 28.1559 26.4343 27.9769 26.6298L27.9767 26.6301L18.881 36.5882L18.8809 36.5883C18.7617 36.7189 18.6873 36.9146 18.738 37.1366C18.7887 37.3586 18.9453 37.5232 19.1152 37.6149L19.1153 37.6149L22.2844 39.3235C22.2849 39.3238 22.2854 39.3241 22.2859 39.3244C22.4439 39.4099 22.6159 39.4367 22.7691 39.4211C22.9229 39.4054 23.0763 39.3452 23.1949 39.235L23.196 39.234C23.58 38.8748 24.1414 38.6287 24.7717 38.5626C25.4022 38.4965 26.0251 38.6184 26.5143 38.8821C27.0009 39.1445 27.3031 39.5161 27.4111 39.9027C27.5187 40.2877 27.4415 40.7152 27.143 41.1013L27.142 41.1026C27.0368 41.2399 26.9825 41.4335 27.0421 41.6429C27.1011 41.85 27.2511 42.0017 27.4118 42.0879C27.4123 42.0882 27.4127 42.0884 27.4132 42.0887L30.5823 43.7972L30.5824 43.7973C30.7489 43.887 30.931 43.9119 31.0912 43.8903C31.2514 43.8687 31.4116 43.7977 31.5285 43.6698L31.5286 43.6698L40.6244 33.7098L40.6247 33.7094C40.8034 33.5133 40.9302 33.2771 40.9811 33.015L40.9813 33.0139C40.9974 32.9297 41.0416 32.8362 41.1242 32.7454C41.2071 32.6543 41.3232 32.5723 41.4679 32.512C41.724 32.4057 41.9527 32.2517 42.1313 32.0561C42.1313 32.056 42.1313 32.056 42.1313 32.056L45.6778 28.1724L45.6779 28.1723C45.7971 28.0417 45.8715 27.846 45.8208 27.624C45.7702 27.4019 45.6136 27.2373 45.4437 27.1457L45.4436 27.1456L42.2745 25.4371C42.274 25.4368 42.2736 25.4366 42.2732 25.4364C42.1151 25.3507 41.943 25.3239 41.7897 25.3395C41.6359 25.3552 41.4825 25.4154 41.3639 25.5256L41.3625 25.5269C40.9791 25.8861 40.4184 26.1326 39.7884 26.1993C39.1584 26.266 38.5355 26.145 38.0457 25.882C37.5597 25.6197 37.2578 25.2484 37.1497 24.8621C37.0421 24.4772 37.119 24.0498 37.417 23.6637Z" fill="#129E88" stroke="white" stroke-miterlimit="10"/>
<path d="M30.7045 26.9999L29.5182 26.3602L30.7045 26.9999ZM33.8677 28.7052L33.0766 28.2792L33.8677 28.7052ZM37.031 30.4111L36.2404 29.9845L37.031 30.4111ZM40.59 32.3295L39.4036 31.6899L40.59 32.3295Z" fill="white"/>
<path d="M30.7045 26.9999L29.5182 26.3602M33.8677 28.7052L33.0766 28.2792M37.031 30.4111L36.2404 29.9845M40.59 32.3295L39.4036 31.6899" stroke="white" stroke-width="0.8" stroke-miterlimit="10" stroke-linecap="round"/>
</svg>
