<svg width="22" height="27" viewBox="0 0 22 27" fill="none" xmlns="http://www.w3.org/2000/svg">
<path d="M2.38577 24.3031C2.38577 25.5121 3.16508 26.4998 4.12799 26.4998H18.0535C19.0123 26.4998 19.7957 25.5172 19.7957 24.3031V10.0374H2.38577V24.3031ZM15.4422 13.3299H17.1844V23.2073H15.4422V13.3299ZM10.2196 13.3299H11.9618V23.2073H10.2196V13.3299ZM4.99706 13.3299H6.73927V23.2073H4.99706V13.3299ZM20.6648 4.54818H15.4422V2.35662C15.4422 1.14251 14.6588 0.159912 13.7 0.159912H8.47741C7.51858 0.159912 6.73519 1.14251 6.73519 2.35662V4.55333H1.51262C1.03117 4.54818 0.643555 5.04206 0.643555 5.64911V6.74489C0.643555 7.35194 1.03117 7.84067 1.51262 7.84067H20.6607C21.1421 7.84067 21.5298 7.35194 21.5298 6.74489V5.64911C21.5338 5.04206 21.1462 4.54818 20.6648 4.54818ZM13.7 4.54818H8.47741V2.35662H13.7V4.54818Z" fill="#E84B51"/>
</svg>
