<svg width="27" height="28" viewBox="0 0 27 28" fill="none" xmlns="http://www.w3.org/2000/svg">
<path d="M18.8301 16.2597C20.525 16.2598 22.1544 16.8845 23.3786 18.0036C24.6028 19.1226 25.3272 20.6497 25.4007 22.2662L25.4073 22.5387V23.7945C25.4075 24.4282 25.1568 25.0385 24.7055 25.5031C24.2542 25.9677 23.6356 26.2523 22.9737 26.2999L22.7764 26.3062H4.36036C3.69662 26.3064 3.05733 26.067 2.57065 25.6362C2.08396 25.2053 1.78585 24.6148 1.73607 23.9829L1.72949 23.7945V22.5387C1.72959 20.9207 2.38397 19.3651 3.55618 18.1964C4.72839 17.0277 6.32792 16.3362 8.02121 16.2659L8.30666 16.2597H18.8301ZM13.5684 1.18994C15.3128 1.18994 16.9857 1.85148 18.2191 3.02903C19.4526 4.20658 20.1456 5.80369 20.1456 7.46899C20.1456 9.1343 19.4526 10.7314 18.2191 11.909C16.9857 13.0865 15.3128 13.748 13.5684 13.748C11.824 13.748 10.1511 13.0865 8.91763 11.909C7.68417 10.7314 6.99122 9.1343 6.99122 7.46899C6.99122 5.80369 7.68417 4.20658 8.91763 3.02903C10.1511 1.85148 11.824 1.18994 13.5684 1.18994Z" stroke="white" stroke-width="2"/>
</svg>
