<svg width="54" height="53" viewBox="0 0 54 53" fill="none" xmlns="http://www.w3.org/2000/svg">
<circle cx="26.9219" cy="26.6453" r="26.1465" fill="white"/>
<path fill-rule="evenodd" clip-rule="evenodd" d="M20.8051 14.9312C18.3924 14.9312 16.3403 15.7585 14.9017 17.2671C13.4763 18.7594 12.7627 20.8032 12.7627 23.0652C12.7627 26.9942 14.8583 30.1249 17.5202 32.5598C20.1708 34.984 23.5048 36.8277 26.2649 38.2065C26.4666 38.3075 26.6909 38.3606 26.9186 38.3612C27.1464 38.3619 27.371 38.31 27.5733 38.2101C30.3353 36.8458 33.6674 34.9876 36.3199 32.5508C38.9818 30.1087 41.0812 26.9672 41.0812 23.0652C41.0812 20.7942 40.3638 18.7522 38.9365 17.2599C37.4961 15.7549 35.4439 14.9294 33.0387 14.9294C31.0073 14.9294 29.3271 15.6486 28.049 17.0039C27.6124 17.4737 27.2341 17.9902 26.9219 18.5431C26.6097 17.9902 26.2315 17.4737 25.7949 17.0039C24.5168 15.6486 22.8365 14.9312 20.8051 14.9312Z" fill="#129E88"/>
</svg>
