<svg width="32" height="27" viewBox="0 0 32 27" fill="none" xmlns="http://www.w3.org/2000/svg">
<path fill-rule="evenodd" clip-rule="evenodd" d="M9.79684 1.74497C7.38411 1.74497 5.33196 2.57224 3.89338 4.08078C2.46802 5.57311 1.75439 7.61695 1.75439 9.87888C1.75439 13.808 3.84996 16.9386 6.5119 19.3735C9.16251 21.7977 12.4965 23.6415 15.2566 25.0202C15.4583 25.1213 15.6826 25.1743 15.9103 25.175C16.1381 25.1756 16.3627 25.1237 16.565 25.0238C19.327 23.6595 22.6591 21.8013 25.3116 19.3645C27.9735 16.9224 30.0729 13.7809 30.0729 9.87888C30.0729 7.60794 29.3555 5.5659 27.9282 4.07358C26.4878 2.56863 24.4356 1.74316 22.0304 1.74316C19.999 1.74316 18.3188 2.46229 17.0407 3.81765C16.6041 4.28746 16.2258 4.80397 15.9136 5.35683C15.6014 4.80397 15.2232 4.28746 14.7866 3.81765C13.5085 2.46229 11.8282 1.74497 9.79684 1.74497Z" stroke="white" stroke-width="2"/>
</svg>
