<svg width="15" height="17" viewBox="0 0 15 17" fill="none" xmlns="http://www.w3.org/2000/svg">
<path d="M8.16239 2.56995V1.58995C8.75359 1.63886 9.33731 1.75544 9.90224 1.93745L10.3123 0.669948C8.48541 0.0774653 6.51956 0.0774653 4.69263 0.669948L5.10274 1.93745C5.66766 1.75544 6.25138 1.63886 6.84259 1.58995V2.56995C5.10407 2.74103 3.49761 3.57821 2.35599 4.90807C1.21437 6.23793 0.625097 7.95854 0.710241 9.71346C0.795386 11.4684 1.54842 13.1231 2.81335 14.3348C4.07828 15.5466 5.75816 16.2224 7.50497 16.2224C9.25179 16.2224 10.9317 15.5466 12.1966 14.3348C13.4615 13.1231 14.2146 11.4684 14.2997 9.71346C14.3848 7.95854 13.7956 6.23793 12.654 4.90807C11.5123 3.57821 9.90587 2.74103 8.16736 2.56995H8.16239ZM7.49876 14.8924C6.41727 14.8924 5.36007 14.5699 4.46084 13.9655C3.56162 13.3612 2.86076 12.5022 2.44689 11.4972C2.03302 10.4922 1.92474 9.38635 2.13572 8.31945C2.34671 7.25256 2.8675 6.27255 3.63223 5.50336C4.39695 4.73417 5.37128 4.21035 6.43198 3.99813C7.49269 3.78591 8.59215 3.89483 9.59131 4.31111C10.5905 4.72739 11.4445 5.43234 12.0453 6.33681C12.6462 7.24128 12.9669 8.30465 12.9669 9.39245C12.9669 10.8511 12.3908 12.2501 11.3653 13.2815C10.3398 14.313 8.94899 14.8924 7.49876 14.8924Z" fill="#17C6AA"/>
<path d="M13.9187 4.95016L15.0098 4.20016C14.3795 3.27816 13.5858 2.48071 12.6685 1.84766L11.9229 2.94516C12.7047 3.48479 13.3812 4.16442 13.9187 4.95016Z" fill="#17C6AA"/>
<path d="M3.09196 2.93734L2.34631 1.83984C1.42721 2.47242 0.631831 3.2699 0 4.19234L1.09114 4.94234C1.63009 4.15616 2.30833 3.4765 3.09196 2.93734Z" fill="#17C6AA"/>
<path d="M9.4897 10.2245L8.16244 9.22446V5.55696C8.16798 5.46604 8.15496 5.37493 8.12418 5.28926C8.09339 5.20359 8.0455 5.12516 7.98345 5.0588C7.9214 4.99245 7.8465 4.93957 7.76337 4.90342C7.68023 4.86728 7.59062 4.84863 7.50005 4.84863C7.40949 4.84863 7.31988 4.86728 7.23674 4.90342C7.15361 4.93957 7.07871 4.99245 7.01666 5.0588C6.95461 5.12516 6.90672 5.20359 6.87593 5.28926C6.84515 5.37493 6.83213 5.46604 6.83767 5.55696V9.55696C6.83692 9.6085 6.84362 9.65987 6.85755 9.70946C6.86707 9.75873 6.88471 9.80605 6.90975 9.84946C6.92566 9.89386 6.95016 9.93464 6.98183 9.96946C6.98926 9.97801 6.99591 9.98722 7.00171 9.99696C7.03017 10.0293 7.06181 10.0586 7.09616 10.0845L7.1235 10.1045L9.74819 12.0845C9.86156 12.1738 10.0019 12.2214 10.1459 12.2195C10.2501 12.2204 10.3532 12.1971 10.4472 12.1516C10.5411 12.1061 10.6234 12.0395 10.6877 11.957C10.7925 11.8153 10.8373 11.6376 10.8121 11.4628C10.7869 11.2881 10.694 11.1304 10.5535 11.0245L9.4897 10.2245Z" fill="#17C6AA"/>
</svg>
