<svg width="22" height="22" viewBox="0 0 22 22" fill="none" xmlns="http://www.w3.org/2000/svg">
<circle cx="11" cy="11" r="11" fill="white"/>
<path d="M17.4987 13.0809L14.2792 11.6382C14.1334 11.5757 13.9742 11.5505 13.8162 11.565C13.6581 11.5796 13.5062 11.6333 13.3742 11.7213C13.3608 11.7299 13.348 11.7395 13.336 11.7499L11.6534 13.1811C11.6359 13.1906 11.6165 13.1959 11.5966 13.1967C11.5767 13.1974 11.557 13.1934 11.5389 13.1852C10.4573 12.6632 9.33692 11.5496 8.81284 10.483C8.80411 10.4652 8.79958 10.4456 8.79958 10.4257C8.79958 10.4059 8.80411 10.3863 8.81284 10.3685L10.2488 8.66472C10.2591 8.65212 10.2686 8.63892 10.2774 8.6252C10.3642 8.49265 10.4167 8.34056 10.43 8.18267C10.4433 8.02478 10.4171 7.86606 10.3537 7.72083L8.9212 4.50682C8.83985 4.31709 8.69916 4.15887 8.52024 4.0559C8.34133 3.95292 8.13384 3.91075 7.92892 3.93571C7.03834 4.0528 6.22086 4.49015 5.62925 5.16605C5.03764 5.84195 4.71237 6.71014 4.71424 7.60838C4.71424 12.9446 9.05546 17.2858 14.3917 17.2858C15.2899 17.2876 16.158 16.9623 16.8339 16.3707C17.5097 15.7791 17.9471 14.9617 18.0643 14.0712C18.0892 13.8672 18.0477 13.6606 17.9457 13.4822C17.8438 13.3038 17.687 13.1631 17.4987 13.0809ZM14.3917 16.468C9.50662 16.468 5.53205 12.4935 5.53205 7.60838C5.52977 6.9091 5.78217 6.23291 6.24208 5.70615C6.70199 5.17939 7.33796 4.8381 8.03115 4.74603H8.04682C8.07429 4.74654 8.10096 4.75534 8.12333 4.77127C8.14571 4.78721 8.16275 4.80953 8.17222 4.83531L9.61021 8.04591C9.61841 8.06376 9.62265 8.08317 9.62265 8.10282C9.62265 8.12246 9.61841 8.14187 9.61021 8.15972L8.17154 9.86759C8.16081 9.87978 8.15101 9.89277 8.14224 9.90644C8.05221 10.0439 7.9992 10.2022 7.98833 10.3662C7.97747 10.5301 8.00912 10.694 8.08022 10.8422C8.68472 12.0798 9.93188 13.3174 11.1831 13.9219C11.3321 13.9926 11.4969 14.0235 11.6613 14.0116C11.8258 13.9996 11.9844 13.9452 12.1216 13.8538C12.1345 13.8449 12.1475 13.8354 12.1597 13.8251L13.8417 12.394C13.8583 12.385 13.8767 12.3798 13.8955 12.3786C13.9143 12.3774 13.9332 12.3804 13.9507 12.3871L17.1709 13.8299C17.1972 13.8411 17.2193 13.8603 17.2341 13.8848C17.2489 13.9092 17.2556 13.9377 17.2533 13.9662C17.1618 14.6597 16.8208 15.2962 16.2941 15.7566C15.7675 16.217 15.0912 16.4699 14.3917 16.468Z" fill="#129E88"/>
</svg>
