<svg width="20" height="19" viewBox="0 0 20 19" fill="none" xmlns="http://www.w3.org/2000/svg">
<path d="M6.51682 9.70458L6.51754 9.69747C6.60485 8.83457 7.00943 8.03482 7.65286 7.45326C8.29627 6.87171 9.13268 6.54976 9.99996 6.5498L6.51682 9.70458ZM6.51682 9.70458L6.5163 9.71171M6.51682 9.70458L6.5163 9.71171M6.5163 9.71171L6.5053 9.86371L6.50448 9.87508M6.5163 9.71171L6.50448 9.87508M6.50448 9.87508L6.50418 9.88648M6.50448 9.87508L6.50418 9.88648M6.50418 9.88648L6.50018 10.0365L6.49982 10.0498M6.50418 9.88648L6.49982 10.0498M6.49982 10.0498L6.50018 10.0631M6.49982 10.0498L6.50018 10.0631M6.50018 10.0631L6.50418 10.2131L6.50404 10.2131M6.50018 10.0631L6.50404 10.2131M6.50404 10.2131L6.50463 10.2248M6.50404 10.2131L6.50463 10.2248M6.50463 10.2248C6.53887 10.9087 6.77299 11.5676 7.17799 12.1198M6.50463 10.2248L7.17799 12.1198M7.17799 12.1198C7.583 12.672 8.14109 13.0932 8.78315 13.3314M7.17799 12.1198L8.78315 13.3314M8.78315 13.3314C9.4252 13.5695 10.123 13.6141 10.7901 13.4595M8.78315 13.3314L10.7901 13.4595M10.7901 13.4595C11.4573 13.305 12.0644 12.9581 12.5363 12.4619M10.7901 13.4595L12.5363 12.4619M12.5363 12.4619C13.0083 11.9657 13.3243 11.342 13.4452 10.6679M12.5363 12.4619L13.4452 10.6679M13.4452 10.6679C13.5662 9.99391 13.4867 9.29921 13.2167 8.66988M13.4452 10.6679L13.2167 8.66988M13.2167 8.66988C12.9467 8.04056 12.4981 7.50426 11.9263 7.12742M13.2167 8.66988L11.9263 7.12742M11.9263 7.12742C11.3545 6.75059 10.6848 6.54976 10 6.5498L11.9263 7.12742ZM13 0.549805L13.0002 0.549805C13.3786 0.549685 13.7431 0.692609 14.0206 0.949928C14.2957 1.20505 14.4651 1.55392 14.4957 1.92764L14.5 2.059C14.5023 2.42314 14.637 2.77415 14.8791 3.04643C15.1232 3.32098 15.4596 3.49638 15.8245 3.53937L15.8388 3.54105L15.8531 3.54191L15.9701 3.54891L15.9851 3.5498H16H17C17.6377 3.54977 18.2513 3.79341 18.7152 4.23087C19.1774 4.66668 19.4563 5.26204 19.4954 5.89591L19.5 6.05688V15.0498C19.5 15.6875 19.2564 16.3011 18.8189 16.765C18.3831 17.2272 17.7878 17.5061 17.1539 17.5452L16.9929 17.5498H3C2.3623 17.5498 1.74871 17.3062 1.28475 16.8687C0.822554 16.4329 0.543663 15.8376 0.504574 15.2037L0.5 15.0427V6.0498V6.04978C0.499964 5.4121 0.743604 4.79851 1.18107 4.33456C1.61688 3.87236 2.21224 3.59347 2.84612 3.55438L3.0071 3.5498H4C4.39782 3.5498 4.77936 3.39177 5.06066 3.11046C5.34196 2.82916 5.5 2.44763 5.5 2.0498V2.04965C5.49988 1.67121 5.6428 1.30672 5.90012 1.02924C6.15524 0.754119 6.50412 0.58469 6.87784 0.554155L7.00833 0.549805H13Z" stroke="black" stroke-opacity="0.71"/>
</svg>
