<svg width="31" height="31" viewBox="0 0 31 31" fill="none" xmlns="http://www.w3.org/2000/svg">
<circle cx="15.4668" cy="15.4668" r="15.4668" fill="white"/>
<path fill-rule="evenodd" clip-rule="evenodd" d="M11.8483 8.5372C10.421 8.5372 9.20711 9.02657 8.35613 9.91894C7.51296 10.8017 7.09082 12.0107 7.09082 13.3488C7.09082 15.673 8.33044 17.5249 9.90509 18.9653C11.473 20.3993 13.4453 21.4899 15.078 22.3056C15.1973 22.3653 15.33 22.3967 15.4647 22.3971C15.5994 22.3974 15.7323 22.3668 15.8519 22.3077C17.4858 21.5006 19.4569 20.4014 21.0259 18.96C22.6006 17.5153 23.8424 15.657 23.8424 13.3488C23.8424 12.0054 23.4181 10.7975 22.5738 9.91467C21.7217 9.02443 20.5078 8.53613 19.085 8.53613C17.8833 8.53613 16.8894 8.96153 16.1333 9.76328C15.875 10.0412 15.6513 10.3467 15.4666 10.6738C15.2819 10.3467 15.0582 10.0412 14.7999 9.76328C14.0439 8.96153 13.0499 8.5372 11.8483 8.5372Z" stroke="black"/>
</svg>
