<svg width="34" height="31" viewBox="0 0 34 31" fill="none" xmlns="http://www.w3.org/2000/svg">
<path d="M29.9644 7.44913L16.8852 0.810524C16.5794 0.653919 16.2358 0.571777 15.8865 0.571777C15.5371 0.571777 15.1935 0.653919 14.8877 0.810524L1.80856 7.45051C1.4813 7.61655 1.20819 7.86112 1.01783 8.15862C0.827477 8.45612 0.726876 8.7956 0.726562 9.14151V22.3223C0.726876 22.6682 0.827477 23.0077 1.01783 23.3052C1.20819 23.6026 1.4813 23.8472 1.80856 24.0133L14.8877 30.6532C15.1936 30.8096 15.5372 30.8916 15.8865 30.8916C16.2358 30.8916 16.5794 30.8096 16.8852 30.6532L29.9644 24.0133C30.2917 23.8472 30.5648 23.6026 30.7551 23.3052C30.9455 23.0077 31.0461 22.6682 31.0464 22.3223V9.14151C31.0463 8.79536 30.9459 8.45559 30.7555 8.15783C30.5651 7.86007 30.2919 7.61528 29.9644 7.44913ZM15.7378 2.26035C15.7816 2.23815 15.8307 2.22652 15.8805 2.22652C15.9304 2.22652 15.9795 2.23815 16.0232 2.26035L28.4469 8.56544L15.8865 14.9381L3.32604 8.56544L15.7378 2.26035ZM2.65871 22.5634C2.61313 22.539 2.57535 22.5039 2.54924 22.4615C2.52312 22.4191 2.50961 22.3711 2.51008 22.3223V10.0346L14.9947 16.3741V28.8244L2.65871 22.5634ZM29.1024 22.5634L16.7782 28.8244V16.3714L29.2629 10.0318V22.3195C29.2639 22.3688 29.2506 22.4174 29.2245 22.4603C29.1983 22.5032 29.1603 22.5388 29.1142 22.5634H29.1024Z" fill="#17C6AA"/>
<circle cx="27.855" cy="24.7466" r="5.64502" fill="white" stroke="#17C6AA"/>
<path d="M25.5967 24.0278L26.1237 25.9946" stroke="#17C6AA" stroke-width="0.8" stroke-linecap="round"/>
<path d="M26.1509 26.0371L30.1133 23.4553" stroke="#17C6AA" stroke-width="0.8" stroke-linecap="round"/>
</svg>
