<svg width="83" height="87" viewBox="0 0 83 87" fill="none" xmlns="http://www.w3.org/2000/svg">
<path d="M41.4995 2L52.2759 9.86123L65.6166 9.83661L69.7134 22.5311L80.5205 30.3513L76.3745 43.0294L80.5205 55.7075L69.7134 63.5277L65.6166 76.2222L52.2759 76.1975L41.4995 84.0588L30.7231 76.1975L17.3824 76.2222L13.2857 63.5277L2.47852 55.7075L6.62453 43.0294L2.47852 30.3513L13.2857 22.5311L17.3824 9.83661L30.7231 9.86123L41.4995 2Z" stroke="#FF0000" stroke-width="4" stroke-linecap="round" stroke-linejoin="round"/>
<g clip-path="url(#clip0_4_12)">
<path fill-rule="evenodd" clip-rule="evenodd" d="M54.4882 32.0909C54.6502 31.9229 54.7788 31.7236 54.8667 31.5041C54.9546 31.2846 54.9998 31.0493 55 30.8117C55.0002 30.5741 54.9551 30.3388 54.8677 30.1192C54.7801 29.8996 54.6517 29.7 54.4897 29.5319C54.3277 29.3638 54.1355 29.2303 53.9239 29.1393C53.7123 29.0482 53.4853 29.0013 53.2563 29.0011C53.027 29.001 52.8002 29.0476 52.5884 29.1384C52.3767 29.2292 52.1843 29.3624 52.0221 29.5303L41.4998 40.4426L30.9804 29.5303C30.653 29.1908 30.2089 29 29.7459 29C29.2829 29 28.8388 29.1908 28.5114 29.5303C28.1839 29.8699 28 30.3304 28 30.8106C28 31.2908 28.1839 31.7513 28.5114 32.0909L39.0337 43L28.5114 53.9091C28.3492 54.0773 28.2206 54.2768 28.1329 54.4965C28.0452 54.7162 28 54.9517 28 55.1894C28 55.4272 28.0452 55.6626 28.1329 55.8823C28.2206 56.102 28.3492 56.3015 28.5114 56.4698C28.8388 56.8093 29.2829 57 29.7459 57C29.9752 57 30.2022 56.9532 30.414 56.8623C30.6258 56.7712 30.8183 56.6378 30.9804 56.4698L41.4998 45.5574L52.0221 56.4698C52.3496 56.8088 52.7936 56.9992 53.2563 56.999C53.719 56.9985 54.1628 56.8076 54.4897 56.468C54.8166 56.1284 55.0002 55.6682 55 55.1884C54.9998 54.7083 54.8157 54.2483 54.4882 53.9091L43.9658 43L54.4882 32.0909Z" fill="#FF0000"/>
</g>
<defs>
<clipPath id="clip0_4_12">
<rect width="27" height="28" fill="white" transform="translate(28 29)"/>
</clipPath>
</defs>
</svg>
