<svg width="18" height="19" viewBox="0 0 18 19" fill="none" xmlns="http://www.w3.org/2000/svg">
<path d="M15.3769 2.63221C14.5476 1.79456 13.5599 1.13041 12.4712 0.678492C11.3826 0.226577 10.2149 -0.00405237 9.03618 5.38821e-05C4.09749 5.38821e-05 0.0723619 4.02518 0.0723619 8.96387C0.0723619 10.5468 0.488442 12.0845 1.26633 13.4413L0 18.0905L4.74874 16.8423C6.0603 17.5568 7.53467 17.9367 9.03618 17.9367C13.9749 17.9367 18 13.9116 18 8.97292C18 6.57593 17.0683 4.32367 15.3769 2.63221ZM9.03618 16.4171C7.69749 16.4171 6.38593 16.0553 5.23719 15.3769L4.96583 15.2141L2.14372 15.9558L2.89447 13.2061L2.71357 12.9257C1.96982 11.738 1.5749 10.3652 1.57387 8.96387C1.57387 4.85734 4.9206 1.51061 9.02713 1.51061C11.0171 1.51061 12.8894 2.2885 14.2915 3.69955C14.9857 4.39057 15.5358 5.21251 15.91 6.11772C16.2842 7.02294 16.475 7.99342 16.4714 8.97292C16.4894 13.0794 13.1427 16.4171 9.03618 16.4171ZM13.1246 10.8453C12.8985 10.7367 11.795 10.194 11.596 10.1126C11.3879 10.0403 11.2432 10.0041 11.0894 10.2212C10.9357 10.4473 10.5106 10.9538 10.3839 11.0985C10.2573 11.2523 10.1216 11.2704 9.89548 11.1528C9.66935 11.0443 8.94573 10.8001 8.09548 10.0403C7.42613 9.44327 6.98291 8.71061 6.84724 8.48448C6.7206 8.25834 6.82914 8.14076 6.94673 8.02317C7.04623 7.92367 7.17286 7.76086 7.28141 7.63422C7.38995 7.50759 7.43518 7.40809 7.50754 7.26337C7.5799 7.1096 7.54372 6.98297 7.48945 6.87443C7.43517 6.76588 6.98291 5.66237 6.80201 5.2101C6.6211 4.77593 6.43116 4.8302 6.29548 4.82116H5.86131C5.70754 4.82116 5.47236 4.87543 5.26432 5.10156C5.06533 5.32769 4.48643 5.87041 4.48643 6.97392C4.48643 8.07744 5.29146 9.14478 5.4 9.2895C5.50854 9.44327 6.98291 11.7046 9.22613 12.6724C9.7598 12.9076 10.1759 13.0433 10.5015 13.1428C11.0352 13.3146 11.5236 13.2875 11.9126 13.2332C12.3467 13.1699 13.2422 12.6905 13.4231 12.1659C13.6131 11.6413 13.6131 11.198 13.5497 11.0985C13.4864 10.999 13.3508 10.9538 13.1246 10.8453Z" fill="#129E88"/>
</svg>
