<svg width="18" height="18" viewBox="0 0 18 18" fill="none" xmlns="http://www.w3.org/2000/svg">
<path fill-rule="evenodd" clip-rule="evenodd" d="M1.8 9C1.80013 7.61441 2.20006 6.25828 2.95181 5.09434C3.70356 3.93041 4.77518 3.00811 6.03811 2.43811C7.30103 1.86811 8.7016 1.67463 10.0718 1.88089C11.4419 2.08714 12.7235 2.68436 13.7626 3.60089C14.8018 4.51743 15.5544 5.71433 15.9302 7.048C16.3059 8.38166 16.2889 9.79543 15.8811 11.1197C15.4733 12.4439 14.6921 13.6223 13.6312 14.5136C12.5703 15.4048 11.2747 15.971 9.9 16.1442V10.8H11.7C11.9387 10.8 12.1676 10.7052 12.3364 10.5364C12.5052 10.3676 12.6 10.1387 12.6 9.9C12.6 9.6613 12.5052 9.43239 12.3364 9.2636C12.1676 9.09482 11.9387 9 11.7 9H9.9V7.2C9.9 6.96131 9.99482 6.73239 10.1636 6.5636C10.3324 6.39482 10.5613 6.3 10.8 6.3H11.25C11.4887 6.3 11.7176 6.20518 11.8864 6.0364C12.0552 5.86761 12.15 5.63869 12.15 5.4C12.15 5.1613 12.0552 4.93239 11.8864 4.7636C11.7176 4.59482 11.4887 4.5 11.25 4.5H10.8C10.0839 4.5 9.39716 4.78446 8.89081 5.29081C8.38446 5.79716 8.1 6.48392 8.1 7.2V9H6.3C6.06131 9 5.83239 9.09482 5.6636 9.2636C5.49482 9.43239 5.4 9.6613 5.4 9.9C5.4 10.1387 5.49482 10.3676 5.6636 10.5364C5.83239 10.7052 6.06131 10.8 6.3 10.8H8.1V16.1442C6.36003 15.9248 4.75994 15.0779 3.6 13.7626C2.44007 12.4472 1.80003 10.7537 1.8 9ZM9 18C13.9707 18 18 13.9707 18 9C18 4.0293 13.9707 0 9 0C4.0293 0 0 4.0293 0 9C0 13.9707 4.0293 18 9 18Z" fill="#129E88"/>
</svg>
