<svg width="18" height="17" viewBox="0 0 18 17" fill="none" xmlns="http://www.w3.org/2000/svg">
<path fill-rule="evenodd" clip-rule="evenodd" d="M14.036 2.83209C13.7016 2.35082 12.8072 1.67439 11.3587 1.96619C10.5136 2.13577 10.0087 2.55356 9.68752 3.10494C9.34552 3.69232 9.17972 4.49096 9.17972 5.42034C9.17972 5.6716 9.07991 5.91257 8.90224 6.09024C8.72457 6.26791 8.4836 6.36772 8.23234 6.36772C5.99084 6.36772 3.85734 5.70171 2.06205 3.90074C1.92651 4.63145 1.87312 5.37503 1.90289 6.11761C1.9531 7.14647 2.19847 8.17817 2.78111 9.06207C3.35428 9.93082 4.29692 10.7266 5.87336 11.2268C6.02784 11.2758 6.16716 11.3636 6.278 11.4819C6.38885 11.6001 6.46752 11.7448 6.50649 11.9021C6.54546 12.0594 6.54343 12.224 6.50058 12.3803C6.45774 12.5366 6.37552 12.6793 6.26179 12.7948C5.75683 13.3127 5.18454 13.7604 4.56029 14.1258C5.56452 14.23 6.53274 14.2376 7.43086 14.1561C9.24983 13.9913 10.6984 13.4712 11.6041 12.7351C13.5112 11.1889 14.5315 8.88302 14.342 5.0196C14.3098 4.38485 14.9227 3.6999 15.2183 3.17978C14.7721 3.26315 14.325 3.24799 14.036 2.83209ZM1.50878 0.932595C1.68031 0.912661 1.85402 0.939986 2.01114 1.01162C2.16826 1.08325 2.30282 1.19646 2.40026 1.33902C3.7986 3.38442 5.47736 4.23517 7.34086 4.42843C7.43181 3.63168 7.64686 2.84441 8.05139 2.15093C8.64445 1.13344 9.60889 0.385009 10.9864 0.108373C12.8906 -0.274369 14.3401 0.415325 15.1804 1.25944L16.8781 0.942069C17.0558 0.908781 17.2393 0.927008 17.4069 0.994599C17.5745 1.06219 17.7193 1.17632 17.8242 1.32353C17.9291 1.47074 17.9897 1.64487 17.9988 1.82539C18.0079 2.0059 17.9652 2.18526 17.8757 2.3423L16.2462 5.20528C16.395 9.33681 15.2468 12.2206 12.7987 14.2073C11.5008 15.2608 9.64205 15.8586 7.60233 16.0433C5.54652 16.229 3.22259 16.0045 0.912876 15.3299C0.715529 15.2724 0.542261 15.1522 0.41922 14.9875C0.296179 14.8228 0.230043 14.6226 0.230791 14.417C0.23154 14.2114 0.299134 14.0117 0.423371 13.8479C0.547608 13.6841 0.721747 13.5652 0.919508 13.5091C2.081 13.1784 2.96585 12.8933 3.76449 12.394C2.62858 11.7915 1.79205 11.0033 1.19993 10.1051C0.377606 8.85649 0.0725493 7.46384 0.0119169 6.20856C-0.0487155 4.95328 0.132234 3.7899 0.323605 2.95146C0.432554 2.47304 0.559503 1.99366 0.734769 1.53513C0.796591 1.3735 0.901505 1.23188 1.03812 1.12566C1.17474 1.01944 1.33689 0.952671 1.50878 0.932595Z" fill="#129E88"/>
</svg>
