<svg width="20" height="20" viewBox="0 0 20 20" fill="none" xmlns="http://www.w3.org/2000/svg">
<path d="M19 10C19 12.3869 18.0518 14.6761 16.364 16.364C14.6761 18.0518 12.3869 19 10 19C7.61305 19 5.32387 18.0518 3.63604 16.364C1.94821 14.6761 1 12.3869 1 10M19 10C19 7.61305 18.0518 5.32387 16.364 3.63604C14.6761 1.94821 12.3869 1 10 1C7.61305 1 5.32387 1.94821 3.63604 3.63604C1.94821 5.32387 1 7.61305 1 10M19 10H1" stroke="#129E88" stroke-width="1.5" stroke-linecap="round" stroke-linejoin="round"/>
<path d="M13.4617 10C13.2916 13.2912 12.0794 16.4431 10.0001 19C7.92086 16.4431 6.7086 13.2912 6.53857 10C6.7086 6.70878 7.92086 3.5569 10.0001 1C12.0794 3.5569 13.2916 6.70878 13.4617 10Z" stroke="#129E88" stroke-width="1.5" stroke-linecap="round" stroke-linejoin="round"/>
</svg>
