<svg width="18" height="18" viewBox="0 0 18 18" fill="none" xmlns="http://www.w3.org/2000/svg">
<path d="M16.3636 5.72667C16.7976 5.72667 17.2138 5.89908 17.5207 6.20598C17.8276 6.51287 18 6.9291 18 7.36312V10.636C18 11.07 17.8276 11.4862 17.5207 11.7931C17.2138 12.1 16.7976 12.2724 16.3636 12.2724H15.4947C15.2953 13.8543 14.5254 15.309 13.3296 16.3636C12.1338 17.4181 10.5943 18 9 18V16.3636C10.302 16.3636 11.5506 15.8463 12.4713 14.9256C13.3919 14.005 13.9091 12.7563 13.9091 11.4542V6.54489C13.9091 5.24286 13.3919 3.99415 12.4713 3.07347C11.5506 2.15279 10.302 1.63556 9 1.63556C7.69803 1.63556 6.44938 2.15279 5.52875 3.07347C4.60812 3.99415 4.09091 5.24286 4.09091 6.54489V12.2724H1.63636C1.20237 12.2724 0.786158 12.1 0.47928 11.7931C0.172402 11.4862 0 11.07 0 10.636V7.36312C0 6.9291 0.172402 6.51287 0.47928 6.20598C0.786158 5.89908 1.20237 5.72667 1.63636 5.72667H2.50527C2.70493 4.14496 3.47488 2.69047 4.67065 1.63612C5.86642 0.581758 7.40582 0 9 0C10.5942 0 12.1336 0.581758 13.3293 1.63612C14.5251 2.69047 15.2951 4.14496 15.4947 5.72667H16.3636ZM5.53091 12.0965L6.39818 10.7088C7.17797 11.1973 8.07985 11.4557 9 11.4542C9.92015 11.4557 10.822 11.1973 11.6018 10.7088L12.4691 12.0965C11.4294 12.748 10.2269 13.0926 9 13.0907C7.7731 13.0926 6.57059 12.748 5.53091 12.0965Z" fill="#129E88"/>
</svg>
