<svg width="16" height="16" viewBox="0 0 16 16" fill="none" xmlns="http://www.w3.org/2000/svg">
<path d="M15.5871 9.00138C15.229 8.38186 15.2292 7.6182 15.5875 6.99882L15.8925 6.47175C15.9988 6.28789 16.0277 6.06934 15.9729 5.86417C15.918 5.65899 15.784 5.48399 15.6002 5.37764L15.0695 5.0709C14.4512 4.7135 14.0704 4.05352 14.0704 3.33935V2.73126C14.0704 2.51883 13.986 2.3151 13.8358 2.16489C13.6856 2.01468 13.4819 1.9303 13.2694 1.9303H12.6624C11.9481 1.9303 11.2881 1.54934 10.9307 0.930843L10.6247 0.40126C10.518 0.217773 10.3434 0.0836828 10.1386 0.0280117C10.037 0.000471279 9.93094 -0.00663013 9.82658 0.00711902C9.72223 0.0208682 9.62165 0.0551945 9.53066 0.108108L9.0022 0.41357C8.38271 0.771655 7.61911 0.771505 6.99976 0.413177L6.47108 0.107307C6.28712 0.00109746 6.06851 -0.0276848 5.86333 0.0272915C5.65815 0.0822679 5.48321 0.2165 5.377 0.400459L5.07028 0.93113C4.71289 1.54946 4.05289 1.9303 3.33871 1.9303H2.73151C2.51909 1.9303 2.31536 2.01468 2.16516 2.16489C2.01495 2.3151 1.93057 2.51883 1.93057 2.73126V3.33855C1.93057 4.05272 1.54976 4.7127 0.931452 5.07009L0.400781 5.37684C0.3095 5.42935 0.229493 5.49937 0.165358 5.58289C0.101222 5.66642 0.0542208 5.76179 0.0270553 5.86353C-0.000110201 5.96528 -0.00690489 6.07139 0.00706158 6.17576C0.0210281 6.28014 0.0554803 6.38073 0.108439 6.47175L0.413139 6.99837C0.771652 7.61799 0.771652 8.38198 0.413139 9.00161L0.108439 9.52822C0.00270657 9.71227 -0.0259804 9.93064 0.0286326 10.1357C0.0832456 10.3409 0.216729 10.5161 0.39998 10.6231L0.930651 10.9299C1.54896 11.2873 1.92977 11.9473 1.92977 12.6614V13.2687C1.92977 13.4811 2.01415 13.6849 2.16436 13.8351C2.31456 13.9853 2.51828 14.0697 2.73071 14.0697H3.33871C4.0529 14.0697 4.71289 14.4505 5.07028 15.0688L5.377 15.5995C5.44791 15.7207 5.54915 15.8214 5.67077 15.8916C5.79238 15.9618 5.93018 15.9992 6.07061 16C6.20997 16 6.34854 15.9632 6.47188 15.8919L6.99892 15.5869C7.61829 15.2285 8.38194 15.2283 9.00147 15.5864L9.52986 15.8919C9.71377 15.9979 9.93224 16.0267 10.1373 15.9719C10.3424 15.9171 10.5174 15.7832 10.6239 15.5995L10.93 15.0695C11.2873 14.4508 11.9475 14.0697 12.662 14.0697H13.2686C13.4811 14.0697 13.6848 13.9853 13.835 13.8351C13.9852 13.6849 14.0696 13.4811 14.0696 13.2687V12.6614C14.0696 11.9473 14.4504 11.2873 15.0687 10.9299L15.5994 10.6231C15.6905 10.5705 15.7703 10.5004 15.8343 10.4168C15.8984 10.3333 15.9453 10.238 15.9724 10.1363C15.9996 10.0346 16.0064 9.92854 15.9926 9.82421C15.9787 9.71988 15.9444 9.6193 15.8917 9.52822L15.5871 9.00138ZM5.99773 3.98717C6.31646 3.98727 6.62211 4.114 6.84741 4.33946C7.07272 4.56493 7.19924 4.87066 7.19913 5.18941C7.19902 5.50816 7.0723 5.81381 6.84685 6.03913C6.62139 6.26444 6.31566 6.39096 5.99693 6.39086C5.67819 6.39075 5.37255 6.26402 5.14724 6.03856C4.92193 5.8131 4.79541 5.50736 4.79552 5.18861C4.79563 4.86986 4.92235 4.56421 5.1478 4.3389C5.37326 4.11358 5.67899 3.98706 5.99773 3.98717ZM6.71824 11.0361C6.45299 11.3898 5.95128 11.4615 5.59749 11.1964C5.24353 10.9311 5.17171 10.4291 5.4371 10.0752L9.28189 4.94869C9.54715 4.595 10.0489 4.52323 10.4026 4.78835C10.7566 5.05362 10.8284 5.55565 10.563 5.90952L6.71824 11.0361ZM10.0024 11.9968C9.84459 11.9967 9.68832 11.9656 9.54253 11.9052C9.39674 11.8447 9.26428 11.7561 9.15272 11.6445C9.04116 11.5329 8.95268 11.4003 8.89233 11.2545C8.83199 11.1087 8.80095 10.9524 8.801 10.7945C8.80106 10.6367 8.83219 10.4804 8.89264 10.3347C8.95308 10.1889 9.04165 10.0564 9.15329 9.94483C9.26492 9.83327 9.39744 9.74478 9.54327 9.68443C9.6891 9.62408 9.84539 9.59305 10.0032 9.5931C10.3219 9.59321 10.6276 9.71993 10.8529 9.9454C11.0782 10.1709 11.2047 10.4766 11.2046 10.7953C11.2045 11.1141 11.0778 11.4197 10.8523 11.6451C10.6269 11.8704 10.3211 11.9969 10.0024 11.9968Z" fill="#129E88"/>
</svg>
