<svg width="54" height="54" viewBox="0 0 54 54" fill="none" xmlns="http://www.w3.org/2000/svg">
<circle cx="26.77" cy="27.2876" r="26.106" stroke="#686868" stroke-opacity="0.26"/>
<path d="M26.9052 22.7552C26.0634 22.7552 24.7603 21.798 23.3881 21.8326C21.5776 21.8557 19.917 22.882 18.983 24.508C17.1033 27.7714 18.4986 32.5917 20.3322 35.244C21.2316 36.5355 22.2925 37.9885 23.6994 37.9424C25.0486 37.8847 25.556 37.066 27.1935 37.066C28.8195 37.066 29.2807 37.9424 30.7107 37.9078C32.1637 37.8847 33.0862 36.5932 33.9741 35.2901C35.0005 33.791 35.4271 32.338 35.4502 32.2573C35.4156 32.2457 32.6249 31.1733 32.5903 27.9444C32.5673 25.246 34.7929 23.9545 34.8967 23.8968C33.6282 22.0402 31.6793 21.8326 30.999 21.7865C29.2231 21.6481 27.7355 22.7552 26.9052 22.7552ZM29.9035 20.0337C30.653 19.1342 31.1489 17.8773 31.0105 16.6318C29.9381 16.678 28.6465 17.3468 27.8739 18.2463C27.182 19.042 26.5823 20.322 26.7438 21.5443C27.9315 21.6366 29.1539 20.9332 29.9035 20.0337Z" fill="black"/>
</svg>
