<svg width="16" height="13" viewBox="0 0 16 13" fill="none" xmlns="http://www.w3.org/2000/svg">
<path d="M1.14288 5.71439H8.00018V6.85727H1.14288V5.71439ZM0 2.85718H5.71442V4.00006H0V2.85718Z" fill="#17C6AA"/>
<path d="M15.9534 6.06071L14.2391 2.06062C14.1951 1.9578 14.1219 1.87018 14.0285 1.80861C13.9351 1.74705 13.8257 1.71426 13.7139 1.71432H11.9996V0.571442C11.9996 0.419886 11.9394 0.274538 11.8322 0.167371C11.7251 0.0602054 11.5797 0 11.4281 0H2.28508V1.14288H10.8567V8.3179C10.5963 8.4691 10.3684 8.67036 10.1862 8.91006C10.004 9.14976 9.87101 9.42317 9.79497 9.71451H6.20403C6.06494 9.17583 5.73417 8.70638 5.27372 8.39413C4.81326 8.08189 4.25473 7.9483 3.70283 8.0184C3.15092 8.0885 2.64353 8.35748 2.27575 8.77493C1.90798 9.19237 1.70508 9.72961 1.70508 10.2859C1.70508 10.8423 1.90798 11.3795 2.27575 11.797C2.64353 12.2144 3.15092 12.4834 3.70283 12.5535C4.25473 12.6236 4.81326 12.49 5.27372 12.1778C5.73417 11.8655 6.06494 11.3961 6.20403 10.8574H9.79497C9.91928 11.3478 10.2036 11.7828 10.6029 12.0935C11.0022 12.4042 11.4936 12.5729 11.9996 12.5729C12.5055 12.5729 12.997 12.4042 13.3963 12.0935C13.7956 11.7828 14.0799 11.3478 14.2042 10.8574H15.4282C15.5798 10.8574 15.7251 10.7972 15.8323 10.69C15.9395 10.5829 15.9997 10.4375 15.9997 10.2859V6.28586C15.9997 6.20844 15.984 6.13184 15.9534 6.06071ZM3.99941 11.4288C3.77337 11.4288 3.5524 11.3618 3.36445 11.2362C3.17651 11.1106 3.03002 10.9321 2.94352 10.7233C2.85702 10.5145 2.83439 10.2847 2.87848 10.063C2.92258 9.84129 3.03143 9.63764 3.19127 9.47781C3.3511 9.31797 3.55474 9.20912 3.77644 9.16503C3.99814 9.12093 4.22793 9.14356 4.43677 9.23006C4.6456 9.31657 4.8241 9.46305 4.94968 9.651C5.07526 9.83894 5.14229 10.0599 5.14229 10.2859C5.14199 10.589 5.02148 10.8795 4.80721 11.0938C4.59295 11.308 4.30243 11.4285 3.99941 11.4288ZM11.9996 2.85721H13.3368L14.5619 5.71442H11.9996V2.85721ZM11.9996 11.4288C11.7735 11.4288 11.5526 11.3618 11.3646 11.2362C11.1767 11.1106 11.0302 10.9321 10.9437 10.7233C10.8572 10.5145 10.8346 10.2847 10.8787 10.063C10.9228 9.84129 11.0316 9.63764 11.1914 9.47781C11.3513 9.31797 11.5549 9.20912 11.7766 9.16503C11.9983 9.12093 12.2281 9.14356 12.437 9.23006C12.6458 9.31657 12.8243 9.46305 12.9499 9.651C13.0754 9.83894 13.1425 10.0599 13.1425 10.2859C13.1422 10.589 13.0217 10.8795 12.8074 11.0938C12.5931 11.308 12.3026 11.4285 11.9996 11.4288ZM14.8568 9.71451H14.2042C14.0783 9.22503 13.7936 8.79116 13.3946 8.48091C12.9956 8.17067 12.505 8.00159 11.9996 8.00018V6.8573H14.8568V9.71451Z" fill="#17C6AA"/>
</svg>
