<svg width="55" height="54" viewBox="0 0 55 54" fill="none" xmlns="http://www.w3.org/2000/svg">
<circle cx="27.5" cy="27.2876" r="26.106" stroke="#686868" stroke-opacity="0.26"/>
<path d="M37.1269 25.3648H36.3361V25.324H27.5V29.2512H33.0486C32.2391 31.5373 30.0639 33.1783 27.5 33.1783C24.2468 33.1783 21.6093 30.5407 21.6093 27.2876C21.6093 24.0344 24.2468 21.3969 27.5 21.3969C29.0016 21.3969 30.3678 21.9634 31.408 22.8887L34.185 20.1117C32.4315 18.4775 30.086 17.4697 27.5 17.4697C22.0781 17.4697 17.6821 21.8657 17.6821 27.2876C17.6821 32.7095 22.0781 37.1055 27.5 37.1055C32.9219 37.1055 37.3179 32.7095 37.3179 27.2876C37.3179 26.6293 37.2501 25.9867 37.1269 25.3648Z" fill="#FFC107"/>
<path d="M18.814 22.7179L22.0396 25.0835C22.9124 22.9226 25.0262 21.3969 27.4998 21.3969C29.0015 21.3969 30.3676 21.9634 31.4078 22.8887L34.1848 20.1117C32.4314 18.4775 30.0859 17.4697 27.4998 17.4697C23.7288 17.4697 20.4585 19.5987 18.814 22.7179Z" fill="#FF3D00"/>
<path d="M27.5001 37.1042C30.0361 37.1042 32.3403 36.1337 34.0825 34.5554L31.0439 31.9841C30.0251 32.759 28.7801 33.178 27.5001 33.177C24.9465 33.177 22.7782 31.5487 21.9614 29.2764L18.7598 31.7431C20.3846 34.9226 23.6844 37.1042 27.5001 37.1042Z" fill="#4CAF50"/>
<path d="M37.1269 25.365H36.3361V25.3242H27.5V29.2514H33.0486C32.6614 30.3394 31.9639 31.2901 31.0423 31.9861L31.0438 31.9852L34.0824 34.5565C33.8674 34.7518 37.3179 32.1967 37.3179 27.2878C37.3179 26.6295 37.2501 25.9869 37.1269 25.365Z" fill="#1976D2"/>
</svg>
