<svg width="151" height="152" viewBox="0 0 151 152" fill="none" xmlns="http://www.w3.org/2000/svg">
<circle cx="75.5" cy="76.0957" r="75.1577" fill="#EDEDED"/>
<path d="M75.4999 74.1117C72.8688 74.1117 70.3455 73.0665 68.4851 71.2061C66.6246 69.3457 65.5794 66.8223 65.5794 64.1913C65.5794 61.5602 66.6246 59.0369 68.4851 57.1765C70.3455 55.316 72.8688 54.2708 75.4999 54.2708C78.1309 54.2708 80.6542 55.316 82.5147 57.1765C84.3751 59.0369 85.4203 61.5602 85.4203 64.1913C85.4203 65.4941 85.1637 66.7841 84.6652 67.9877C84.1666 69.1913 83.4359 70.2849 82.5147 71.2061C81.5935 72.1273 80.4999 72.858 79.2963 73.3566C78.0927 73.8551 76.8026 74.1117 75.4999 74.1117ZM75.4999 36.4141C68.1329 36.4141 61.0677 39.3406 55.8584 44.5498C50.6492 49.7591 47.7227 56.8243 47.7227 64.1913C47.7227 85.0242 75.4999 115.778 75.4999 115.778C75.4999 115.778 103.277 85.0242 103.277 64.1913C103.277 56.8243 100.351 49.7591 95.1413 44.5498C89.9321 39.3406 82.8669 36.4141 75.4999 36.4141Z" fill="#17C6AA"/>
</svg>
