<svg width="26" height="26" viewBox="0 0 26 26" fill="none" xmlns="http://www.w3.org/2000/svg">
<circle cx="12.915" cy="12.6948" r="12.5" fill="white" fill-opacity="0.5"/>
<path fill-rule="evenodd" clip-rule="evenodd" d="M10.107 7.19567C8.99944 7.19567 8.05737 7.58403 7.39697 8.29221C6.74264 8.99278 6.41504 9.95226 6.41504 11.0141C6.41504 12.8586 7.37704 14.3283 8.59904 15.4714C9.81584 16.6094 11.3464 17.4749 12.6134 18.1222C12.706 18.1696 12.809 18.1945 12.9135 18.1948C13.0181 18.1951 13.1212 18.1708 13.214 18.1239C14.482 17.4834 16.0116 16.6111 17.2293 15.4671C18.4513 14.3207 19.415 12.8459 19.415 11.0141C19.415 9.94803 19.0857 8.9894 18.4305 8.28883C17.7692 7.58234 16.8272 7.19482 15.723 7.19482C14.7905 7.19482 14.0192 7.53242 13.4324 8.16868C13.232 8.38924 13.0584 8.63171 12.915 8.89125C12.7717 8.63171 12.5981 8.38924 12.3976 8.16868C11.8109 7.53242 11.0396 7.19567 10.107 7.19567Z" fill="#129E88"/>
</svg>
