<svg width="16" height="18" viewBox="0 0 16 18" fill="none" xmlns="http://www.w3.org/2000/svg">
<path d="M8.33447 0.481934C10.3236 0.481934 12.2312 1.2591 13.6378 2.64248C15.0443 4.02585 15.8345 5.90211 15.8345 7.8585C15.8345 10.378 14.4378 12.4402 12.9661 13.9196C12.2307 14.6506 11.4285 15.3134 10.5695 15.8998L10.2145 16.1375L10.0478 16.2465L9.73364 16.4432L9.45364 16.6112L9.10697 16.8095C8.87156 16.9413 8.60535 17.0106 8.33447 17.0106C8.0636 17.0106 7.79738 16.9413 7.56197 16.8095L7.21531 16.6112L6.78197 16.3489L6.62197 16.2465L6.28031 16.0227C5.35362 15.4058 4.49036 14.7014 3.70281 13.9196C2.23114 12.4393 0.834473 10.378 0.834473 7.8585C0.834473 5.90211 1.62465 4.02585 3.03117 2.64248C4.43769 1.2591 6.34535 0.481934 8.33447 0.481934ZM8.33447 5.39964C8.00617 5.39964 7.68108 5.46324 7.37776 5.58681C7.07445 5.71038 6.79885 5.8915 6.56671 6.11982C6.33456 6.34815 6.15041 6.61921 6.02477 6.91753C5.89914 7.21585 5.83447 7.53559 5.83447 7.8585C5.83447 8.1814 5.89914 8.50114 6.02477 8.79946C6.15041 9.09778 6.33456 9.36884 6.56671 9.59717C6.79885 9.82549 7.07445 10.0066 7.37776 10.1302C7.68108 10.2537 8.00617 10.3173 8.33447 10.3173C8.99751 10.3173 9.6334 10.0583 10.1022 9.59717C10.5711 9.13604 10.8345 8.51062 10.8345 7.8585C10.8345 7.20637 10.5711 6.58095 10.1022 6.11982C9.6334 5.6587 8.99751 5.39964 8.33447 5.39964Z" fill="#17C6AA"/>
</svg>
