<svg width="16" height="19" viewBox="0 0 16 19" fill="none" xmlns="http://www.w3.org/2000/svg">
<path d="M11.4277 7.99945C11.4277 8.90866 11.0666 9.78063 10.4236 10.4235C9.78074 11.0664 8.90877 11.4276 7.99956 11.4276C7.09036 11.4276 6.21839 11.0664 5.57548 10.4235C4.93257 9.78063 4.57139 8.90866 4.57139 7.99945C4.57139 7.09024 4.93257 6.21827 5.57548 5.57537C6.21839 4.93246 7.09036 4.57128 7.99956 4.57128C8.90877 4.57128 9.78074 4.93246 10.4236 5.57537C11.0666 6.21827 11.4277 7.09024 11.4277 7.99945ZM10.285 7.99945C10.285 7.39331 10.0442 6.812 9.61562 6.38339C9.18702 5.95479 8.6057 5.714 7.99956 5.714C7.39343 5.714 6.81211 5.95479 6.38351 6.38339C5.9549 6.812 5.71412 7.39331 5.71412 7.99945C5.71412 8.60559 5.9549 9.1869 6.38351 9.61551C6.81211 10.0441 7.39343 10.2849 7.99956 10.2849C8.6057 10.2849 9.18702 10.0441 9.61562 9.61551C10.0442 9.1869 10.285 8.60559 10.285 7.99945ZM13.656 13.6616C15.1563 12.1606 15.9991 10.1252 15.9991 8.00288C15.9991 5.8806 15.1563 3.84518 13.656 2.34411C12.9134 1.60097 12.0316 1.01145 11.061 0.609234C10.0905 0.207021 9.05017 0 7.99956 0C6.94896 0 5.90865 0.207021 4.93808 0.609234C3.96752 1.01145 3.08572 1.60097 2.34308 2.34411C0.84279 3.84518 0 5.8806 0 8.00288C0 10.1252 0.84279 12.1606 2.34308 13.6616L4.08116 15.3746L6.41575 17.6429L6.56773 17.7777C7.45334 18.4954 8.75033 18.4497 9.58452 17.6429L12.3671 14.9346L13.656 13.6616ZM3.1487 3.14973C3.78562 2.51252 4.54185 2.00705 5.37418 1.66218C6.2065 1.31731 7.09862 1.1398 7.99956 1.1398C8.90051 1.1398 9.79263 1.31731 10.625 1.66218C11.4573 2.00705 12.2135 2.51252 12.8504 3.14973C14.1014 4.40153 14.8206 6.08804 14.8581 7.85736C14.8956 9.62667 14.2484 11.3421 13.0515 12.6458L12.8504 12.856L11.3409 14.3461L8.79262 16.8247L8.6852 16.9161C8.4875 17.0648 8.24676 17.1452 7.99937 17.145C7.75198 17.1448 7.51138 17.064 7.31393 16.915L7.20766 16.8236L3.80234 13.504L3.1487 12.856L2.94758 12.6469C1.75075 11.3433 1.10354 9.62782 1.14102 7.8585C1.17849 6.08918 1.89774 4.40153 3.1487 3.14973Z" fill="#17C6AA"/>
</svg>
