<svg width="36" height="37" viewBox="0 0 36 37" fill="none" xmlns="http://www.w3.org/2000/svg">
<circle cx="18.0526" cy="18.6151" r="17.9471" fill="#17C6AA"/>
<path d="M25.9816 22.2322C25.9101 22.1474 25.8399 22.0626 25.771 21.9808C24.8234 20.8525 24.2501 20.1716 24.2501 16.9777C24.2501 15.3241 23.8482 13.9673 23.0561 12.9497C22.4721 12.198 21.6825 11.6277 20.6419 11.2063C20.6285 11.1989 20.6166 11.1893 20.6066 11.1779C20.2323 9.94404 19.208 9.11768 18.0528 9.11768C16.8976 9.11768 15.8738 9.94404 15.4995 11.1766C15.4895 11.1876 15.4777 11.1969 15.4646 11.2041C13.0362 12.1882 11.856 14.0763 11.856 16.9764C11.856 20.1716 11.2836 20.8525 10.3351 21.9795C10.2662 22.0613 10.196 22.1444 10.1245 22.2309C9.93983 22.4502 9.82281 22.7169 9.78732 22.9996C9.75182 23.2823 9.79934 23.5691 9.92424 23.826C10.19 24.3772 10.7564 24.7193 11.4029 24.7193H24.7075C25.351 24.7193 25.9135 24.3776 26.1802 23.829C26.3056 23.572 26.3536 23.285 26.3184 23.002C26.2832 22.719 26.1663 22.4518 25.9816 22.2322ZM18.0528 28.1126C18.6753 28.1121 19.2859 27.9457 19.8201 27.6313C20.3542 27.3168 20.792 26.8658 21.0869 26.3263C21.1007 26.3004 21.1076 26.2715 21.1068 26.2422C21.1059 26.213 21.0974 26.1845 21.0821 26.1594C21.0667 26.1344 21.0451 26.1136 21.0192 26.0993C20.9933 26.0849 20.9641 26.0774 20.9344 26.0774H15.1722C15.1424 26.0773 15.1131 26.0848 15.0872 26.0991C15.0613 26.1135 15.0395 26.1342 15.0241 26.1592C15.0087 26.1843 15.0002 26.2128 14.9993 26.2421C14.9985 26.2714 15.0054 26.3004 15.0193 26.3263C15.3141 26.8658 15.7518 27.3167 16.2858 27.6312C16.8199 27.9456 17.4305 28.112 18.0528 28.1126Z" fill="white"/>
</svg>
