<svg width="54" height="55" viewBox="0 0 54 55" fill="none" xmlns="http://www.w3.org/2000/svg">
<circle cx="26.9346" cy="27.4771" r="26.9346" fill="#E0FFFA"/>
<path d="M15.375 28.3985H28.3888V30.388H15.375V28.3985ZM13.2061 23.4248H24.0509V25.4143H13.2061V23.4248Z" fill="#17C6AA"/>
<path d="M43.4833 29.0014L40.2298 22.0382C40.1463 21.8592 40.0074 21.7067 39.8302 21.5995C39.653 21.4924 39.4454 21.4353 39.2332 21.4354H35.9798V19.4459C35.9798 19.1821 35.8655 18.9291 35.6621 18.7425C35.4587 18.556 35.1829 18.4512 34.8953 18.4512H17.5436V20.4407H33.8108V32.9306C33.3166 33.1938 32.8842 33.5441 32.5383 33.9614C32.1925 34.3787 31.9402 34.8546 31.7958 35.3618H24.981C24.717 34.4241 24.0893 33.6068 23.2154 33.0633C22.3416 32.5198 21.2816 32.2872 20.2342 32.4093C19.1868 32.5313 18.2239 32.9995 17.5259 33.7262C16.8279 34.4528 16.4429 35.388 16.4429 36.3565C16.4429 37.325 16.8279 38.2602 17.5259 38.9868C18.2239 39.7135 19.1868 40.1817 20.2342 40.3037C21.2816 40.4258 22.3416 40.1932 23.2154 39.6497C24.0893 39.1061 24.717 38.2889 24.981 37.3512H31.7958C32.0317 38.205 32.5713 38.9622 33.329 39.503C34.0868 40.0439 35.0196 40.3376 35.9798 40.3376C36.9399 40.3376 37.8727 40.0439 38.6305 39.503C39.3882 38.9622 39.9278 38.205 40.1637 37.3512H42.4866C42.7743 37.3512 43.0501 37.2464 43.2535 37.0599C43.4569 36.8733 43.5711 36.6203 43.5711 36.3565V29.3933C43.5712 29.2586 43.5413 29.1252 43.4833 29.0014ZM20.797 38.346C20.3681 38.346 19.9487 38.2293 19.592 38.0107C19.2353 37.7921 18.9573 37.4814 18.7932 37.1178C18.629 36.7543 18.5861 36.3543 18.6698 35.9684C18.7534 35.5824 18.96 35.228 19.2634 34.9497C19.5667 34.6715 19.9532 34.482 20.3739 34.4052C20.7946 34.3285 21.2307 34.3679 21.6271 34.5185C22.0234 34.669 22.3621 34.924 22.6005 35.2512C22.8388 35.5784 22.966 35.963 22.966 36.3565C22.9654 36.884 22.7367 37.3897 22.3301 37.7627C21.9235 38.1357 21.3721 38.3455 20.797 38.346ZM35.9798 23.4249H38.5174L40.8426 28.3986H35.9798V23.4249ZM35.9798 38.346C35.5508 38.346 35.1314 38.2293 34.7747 38.0107C34.4181 37.7921 34.1401 37.4814 33.9759 37.1178C33.8117 36.7543 33.7688 36.3543 33.8525 35.9684C33.9362 35.5824 34.1427 35.228 34.4461 34.9497C34.7494 34.6715 35.1359 34.482 35.5566 34.4052C35.9774 34.3285 36.4135 34.3679 36.8098 34.5185C37.2061 34.669 37.5449 34.924 37.7832 35.2512C38.0215 35.5784 38.1487 35.963 38.1487 36.3565C38.1481 36.884 37.9194 37.3897 37.5128 37.7627C37.1062 38.1357 36.5548 38.3455 35.9798 38.346ZM41.4022 35.3618H40.1637C39.9248 34.5097 39.3844 33.7544 38.6272 33.2144C37.8701 32.6743 36.9389 32.38 35.9798 32.3775V30.3881H41.4022V35.3618Z" fill="#17C6AA"/>
<circle cx="16.4429" cy="20.7612" r="5.64502" fill="white" stroke="#17C6AA"/>
<path d="M14.1846 20.043L14.7116 22.0097" stroke="#17C6AA" stroke-width="0.8" stroke-linecap="round"/>
<path d="M14.7388 22.0518L18.7012 19.47" stroke="#17C6AA" stroke-width="0.8" stroke-linecap="round"/>
</svg>
