<svg width="31" height="31" viewBox="0 0 31 31" fill="none" xmlns="http://www.w3.org/2000/svg">
<path d="M29.918 7.13224L16.8389 0.493629C16.5331 0.337025 16.1894 0.254883 15.8401 0.254883C15.4908 0.254883 15.1471 0.337025 14.8413 0.493629L1.76218 7.13362C1.43491 7.29966 1.1618 7.54423 0.971446 7.84172C0.78109 8.13922 0.680489 8.4787 0.680176 8.82462V22.0054C0.680489 22.3513 0.78109 22.6908 0.971446 22.9883C1.1618 23.2858 1.43491 23.5303 1.76218 23.6964L14.8413 30.3364C15.1472 30.4927 15.4908 30.5747 15.8401 30.5747C16.1894 30.5747 16.533 30.4927 16.8389 30.3364L29.918 23.6964C30.2453 23.5303 30.5184 23.2858 30.7087 22.9883C30.8991 22.6908 30.9997 22.3513 31 22.0054V8.82462C31 8.47847 30.8995 8.1387 30.7091 7.84094C30.5187 7.54318 30.2455 7.29839 29.918 7.13224ZM15.6915 1.94346C15.7352 1.92126 15.7843 1.90963 15.8341 1.90963C15.884 1.90963 15.9331 1.92126 15.9768 1.94346L28.4005 8.24855L15.8401 14.6212L3.27966 8.24855L15.6915 1.94346ZM2.61232 22.2465C2.56674 22.2221 2.52896 22.187 2.50285 22.1446C2.47674 22.1022 2.46322 22.0542 2.46369 22.0054V9.71767L14.9483 16.0572V28.5075L2.61232 22.2465ZM29.056 22.2465L16.7318 28.5075V16.0545L29.2165 9.71491V22.0026C29.2175 22.0519 29.2042 22.1005 29.1781 22.1434C29.1519 22.1863 29.1139 22.2219 29.0679 22.2465H29.056Z" fill="#17C6AA"/>
</svg>
