<svg width="13" height="9" viewBox="0 0 13 9" fill="none" xmlns="http://www.w3.org/2000/svg">
<path d="M3.96094 2.84375C3.96094 2.99609 3.93132 3.13997 3.87207 3.27539C3.81283 3.41081 3.73242 3.5293 3.63086 3.63086C3.5293 3.73242 3.41081 3.81283 3.27539 3.87207C3.13997 3.93132 2.99609 3.96094 2.84375 3.96094C2.69141 3.96094 2.54753 3.93132 2.41211 3.87207C2.27669 3.81283 2.1582 3.73242 2.05664 3.63086C1.95508 3.5293 1.87467 3.41081 1.81543 3.27539C1.75618 3.13997 1.72656 2.99609 1.72656 2.84375C1.72656 2.69141 1.75618 2.54753 1.81543 2.41211C1.87467 2.27669 1.95508 2.1582 2.05664 2.05664C2.1582 1.95508 2.27669 1.87467 2.41211 1.81543C2.54753 1.75618 2.69141 1.72656 2.84375 1.72656C2.99609 1.72656 3.13997 1.75618 3.27539 1.81543C3.41081 1.87467 3.5293 1.95508 3.63086 2.05664C3.73242 2.1582 3.81283 2.27669 3.87207 2.41211C3.93132 2.54753 3.96094 2.69141 3.96094 2.84375ZM2.84375 3.35156C2.9834 3.35156 3.10189 3.3029 3.19922 3.20557C3.29655 3.10824 3.34733 2.98763 3.35156 2.84375C3.35156 2.7041 3.3029 2.58561 3.20557 2.48828C3.10824 2.39095 2.98763 2.34017 2.84375 2.33594C2.7041 2.33594 2.58561 2.3846 2.48828 2.48193C2.39095 2.57926 2.34017 2.69987 2.33594 2.84375C2.33594 2.9834 2.3846 3.10189 2.48193 3.19922C2.57926 3.29655 2.69987 3.34733 2.84375 3.35156ZM6.09375 4.16406C6.24609 4.16406 6.38997 4.19369 6.52539 4.25293C6.66081 4.31217 6.7793 4.39258 6.88086 4.49414C6.98242 4.5957 7.06283 4.71419 7.12207 4.84961C7.18131 4.98503 7.21094 5.12891 7.21094 5.28125C7.21094 5.43359 7.18131 5.57747 7.12207 5.71289C7.06283 5.84831 6.98242 5.9668 6.88086 6.06836C6.7793 6.16992 6.66081 6.25033 6.52539 6.30957C6.38997 6.36881 6.24609 6.39844 6.09375 6.39844C5.94141 6.39844 5.79753 6.36881 5.66211 6.30957C5.52669 6.25033 5.4082 6.16992 5.30664 6.06836C5.20508 5.9668 5.12467 5.84831 5.06543 5.71289C5.00619 5.57747 4.97656 5.43359 4.97656 5.28125C4.97656 5.12891 5.00619 4.98503 5.06543 4.84961C5.12467 4.71419 5.20508 4.5957 5.30664 4.49414C5.4082 4.39258 5.52669 4.31217 5.66211 4.25293C5.79753 4.19369 5.94141 4.16406 6.09375 4.16406ZM6.09375 5.78906C6.2334 5.78906 6.35189 5.7404 6.44922 5.64307C6.54655 5.54574 6.59733 5.42513 6.60156 5.28125C6.60156 5.1416 6.5529 5.02311 6.45557 4.92578C6.35824 4.82845 6.23763 4.77767 6.09375 4.77344C5.9541 4.77344 5.83561 4.8221 5.73828 4.91943C5.64095 5.01676 5.59017 5.13737 5.58594 5.28125C5.58594 5.4209 5.6346 5.53939 5.73193 5.63672C5.82926 5.73405 5.94987 5.78483 6.09375 5.78906ZM5.34473 1.625H6.03027L3.59277 6.5H2.90723L5.34473 1.625ZM8.9375 0L13 4.0625L8.9375 8.125H0V0H8.9375ZM8.60107 7.3125L11.8511 4.0625L8.60107 0.8125H0.8125V7.3125H8.60107ZM9.75 3.65625C9.86003 3.65625 9.95524 3.69645 10.0356 3.77686C10.116 3.85726 10.1562 3.95247 10.1562 4.0625C10.1562 4.17253 10.116 4.26774 10.0356 4.34814C9.95524 4.42855 9.86003 4.46875 9.75 4.46875C9.63997 4.46875 9.54476 4.42855 9.46436 4.34814C9.38395 4.26774 9.34375 4.17253 9.34375 4.0625C9.34375 3.95247 9.38395 3.85726 9.46436 3.77686C9.54476 3.69645 9.63997 3.65625 9.75 3.65625Z" fill="black"/>
</svg>
