<svg width="13" height="13" viewBox="0 0 13 13" fill="none" xmlns="http://www.w3.org/2000/svg">
<path d="M6.4675 10.4C6.695 10.4 6.8874 10.3213 7.0447 10.164C7.202 10.0067 7.28043 9.81457 7.28 9.5875C7.28 9.36 7.20157 9.1676 7.0447 9.0103C6.88783 8.853 6.69543 8.77457 6.4675 8.775C6.24 8.775 6.04782 8.85365 5.89095 9.01095C5.73408 9.16825 5.65543 9.36043 5.655 9.5875C5.655 9.815 5.73365 10.0074 5.89095 10.1647C6.04825 10.322 6.24043 10.4004 6.4675 10.4ZM5.8825 7.8975H7.085C7.085 7.54 7.12573 7.25833 7.2072 7.0525C7.28867 6.84667 7.51877 6.565 7.8975 6.2075C8.17917 5.92583 8.40125 5.6576 8.56375 5.4028C8.72625 5.148 8.8075 4.84207 8.8075 4.485C8.8075 3.87833 8.58541 3.4125 8.14125 3.0875C7.69708 2.7625 7.17167 2.6 6.565 2.6C5.9475 2.6 5.44657 2.7625 5.0622 3.0875C4.67783 3.4125 4.4096 3.8025 4.2575 4.2575L5.33 4.68C5.38417 4.485 5.50615 4.27375 5.69595 4.04625C5.88575 3.81875 6.17543 3.705 6.565 3.705C6.91167 3.705 7.17167 3.7999 7.345 3.9897C7.51833 4.1795 7.605 4.38793 7.605 4.615C7.605 4.83167 7.54 5.0349 7.41 5.2247C7.28 5.4145 7.1175 5.59043 6.9225 5.7525C6.44583 6.175 6.15333 6.49458 6.045 6.71125C5.93667 6.92792 5.8825 7.32333 5.8825 7.8975ZM6.5 13C5.60083 13 4.75583 12.8295 3.965 12.4884C3.17417 12.1474 2.48625 11.6842 1.90125 11.0987C1.31625 10.5137 0.853233 9.82583 0.5122 9.035C0.171167 8.24417 0.000433333 7.39917 0 6.5C0 5.60083 0.170733 4.75583 0.5122 3.965C0.853667 3.17417 1.31668 2.48625 1.90125 1.90125C2.48625 1.31625 3.17417 0.853233 3.965 0.5122C4.75583 0.171167 5.60083 0.000433333 6.5 0C7.39917 0 8.24417 0.170733 9.035 0.5122C9.82583 0.853667 10.5137 1.31668 11.0987 1.90125C11.6837 2.48625 12.147 3.17417 12.4884 3.965C12.8299 4.75583 13.0004 5.60083 13 6.5C13 7.39917 12.8293 8.24417 12.4878 9.035C12.1463 9.82583 11.6833 10.5137 11.0987 11.0987C10.5137 11.6837 9.82583 12.147 9.035 12.4884C8.24417 12.8299 7.39917 13.0004 6.5 13ZM6.5 11.7C7.95167 11.7 9.18125 11.1962 10.1887 10.1887C11.1962 9.18125 11.7 7.95167 11.7 6.5C11.7 5.04833 11.1962 3.81875 10.1887 2.81125C9.18125 1.80375 7.95167 1.3 6.5 1.3C5.04833 1.3 3.81875 1.80375 2.81125 2.81125C1.80375 3.81875 1.3 5.04833 1.3 6.5C1.3 7.95167 1.80375 9.18125 2.81125 10.1887C3.81875 11.1962 5.04833 11.7 6.5 11.7Z" fill="black"/>
</svg>
