<svg width="14" height="13" viewBox="0 0 14 13" fill="none" xmlns="http://www.w3.org/2000/svg">
<path d="M12.4976 9.62426H11.4567C11.3857 9.62426 11.319 9.65535 11.2746 9.71014C11.171 9.83599 11.0599 9.95741 10.9429 10.0729C10.4645 10.5518 9.89786 10.9334 9.27425 11.1967C8.62817 11.4696 7.93377 11.6096 7.23243 11.6083C6.5232 11.6083 5.83617 11.4692 5.19061 11.1967C4.567 10.9334 4.00032 10.5518 3.52192 10.0729C3.04265 9.59563 2.6605 9.02994 2.39662 8.40716C2.1227 7.7616 1.985 7.07606 1.985 6.36683C1.985 5.65759 2.12418 4.97205 2.39662 4.32649C2.66018 3.70313 3.03922 3.14197 3.52192 2.66075C4.00461 2.17954 4.56578 1.8005 5.19061 1.53694C5.83617 1.2645 6.5232 1.12532 7.23243 1.12532C7.94166 1.12532 8.62868 1.26302 9.27425 1.53694C9.89908 1.8005 10.4602 2.17954 10.9429 2.66075C11.0599 2.77773 11.1695 2.89914 11.2746 3.02351C11.319 3.0783 11.3871 3.10939 11.4567 3.10939H12.4976C12.5909 3.10939 12.6487 3.00575 12.5968 2.92727C11.4612 1.16233 9.47414 -0.00590019 7.21614 2.24151e-05C3.6685 0.00890633 0.824169 2.88877 0.859704 6.43197C0.89524 9.91891 3.73513 12.7336 7.23243 12.7336C9.4845 12.7336 11.4627 11.5669 12.5968 9.80638C12.6472 9.7279 12.5909 9.62426 12.4976 9.62426ZM13.8139 6.27354L11.7129 4.61521C11.6344 4.55303 11.5204 4.60929 11.5204 4.7085V5.83379H6.87115C6.806 5.83379 6.7527 5.88709 6.7527 5.95224V6.78141C6.7527 6.84656 6.806 6.89986 6.87115 6.89986H11.5204V8.02516C11.5204 8.12436 11.6359 8.18062 11.7129 8.11844L13.8139 6.46011C13.8281 6.44903 13.8395 6.43487 13.8474 6.41871C13.8553 6.40254 13.8594 6.3848 13.8594 6.36683C13.8594 6.34885 13.8553 6.33111 13.8474 6.31494C13.8395 6.29878 13.8281 6.28463 13.8139 6.27354Z" fill="black"/>
</svg>
