<svg width="13" height="16" viewBox="0 0 13 16" fill="none" xmlns="http://www.w3.org/2000/svg">
<path d="M6.5 0L13 3.75331V11.2586L6.5 15.0119L0 11.2586V3.75331L6.5 0ZM6.5 1.55435L1.34576 4.52981V10.4821L6.5 13.4576L11.6542 10.4821V4.52981L6.5 1.55435ZM6.5 5.48732C5.96462 5.48732 5.45118 5.7 5.07261 6.07856C4.69404 6.45713 4.48137 6.97058 4.48137 7.50595C4.48137 8.04133 4.69404 8.55477 5.07261 8.93334C5.45118 9.31191 5.96462 9.52459 6.5 9.52459C7.03537 9.52459 7.54882 9.31191 7.92739 8.93334C8.30596 8.55477 8.51863 8.04133 8.51863 7.50595C8.51863 6.97058 8.30596 6.45713 7.92739 6.07856C7.54882 5.7 7.03537 5.48732 6.5 5.48732ZM3.13561 7.50595C3.13561 6.61366 3.49007 5.75792 4.12102 5.12697C4.75196 4.49602 5.60771 4.14156 6.5 4.14156C7.39229 4.14156 8.24804 4.49602 8.87898 5.12697C9.50993 5.75792 9.86439 6.61366 9.86439 7.50595C9.86439 8.39824 9.50993 9.25399 8.87898 9.88493C8.24804 10.5159 7.39229 10.8703 6.5 10.8703C5.60771 10.8703 4.75196 10.5159 4.12102 9.88493C3.49007 9.25399 3.13561 8.39824 3.13561 7.50595Z" fill="black"/>
</svg>
