<svg width="13" height="11" viewBox="0 0 13 11" fill="none" xmlns="http://www.w3.org/2000/svg">
<path d="M0.928576 4.64273H6.50004V5.57131H0.928576V4.64273ZM0 2.32129H4.64288V3.24987H0V2.32129Z" fill="black"/>
<path d="M12.9623 4.92424L11.5694 1.67422C11.5337 1.59069 11.4742 1.51949 11.3983 1.46947C11.3225 1.41945 11.2336 1.39281 11.1428 1.39286H9.74989V0.464288C9.74989 0.341151 9.70097 0.223058 9.6139 0.135987C9.52683 0.048916 9.40874 0 9.2856 0H1.85699V0.928577H8.82131V6.75818C8.60975 6.88103 8.4246 7.04454 8.27654 7.2393C8.12849 7.43405 8.02045 7.65619 7.95866 7.8929H5.04108C4.92807 7.45524 4.65932 7.07381 4.28521 6.82012C3.9111 6.56642 3.4573 6.45788 3.00889 6.51484C2.56047 6.57179 2.14822 6.79034 1.84941 7.1295C1.5506 7.46867 1.38574 7.90517 1.38574 8.35719C1.38574 8.80921 1.5506 9.24571 1.84941 9.58487C2.14822 9.92404 2.56047 10.1426 3.00889 10.1995C3.4573 10.2565 3.9111 10.148 4.28521 9.89426C4.65932 9.64057 4.92807 9.25914 5.04108 8.82148H7.95866C8.05966 9.21995 8.29064 9.57336 8.61506 9.82581C8.93948 10.0783 9.33882 10.2153 9.74989 10.2153C10.161 10.2153 10.5603 10.0783 10.8847 9.82581C11.2091 9.57336 11.4401 9.21995 11.5411 8.82148H12.5356C12.6588 8.82148 12.7768 8.77256 12.8639 8.68549C12.951 8.59842 12.9999 8.48033 12.9999 8.35719V5.10717C12.9999 5.04427 12.9871 4.98203 12.9623 4.92424ZM3.24985 9.28577C3.0662 9.28577 2.88667 9.23131 2.73396 9.12927C2.58126 9.02724 2.46224 8.88222 2.39196 8.71254C2.32168 8.54286 2.30329 8.35616 2.33912 8.17603C2.37495 7.99591 2.46339 7.83045 2.59325 7.70059C2.72311 7.57072 2.88857 7.48228 3.0687 7.44645C3.24882 7.41063 3.43553 7.42901 3.6052 7.4993C3.77488 7.56958 3.9199 7.6886 4.02193 7.8413C4.12397 7.994 4.17843 8.17353 4.17843 8.35719C4.17818 8.60339 4.08027 8.83943 3.90618 9.01352C3.73209 9.18761 3.49605 9.28552 3.24985 9.28577ZM9.74989 2.32144H10.8363L11.8318 4.64288H9.74989V2.32144ZM9.74989 9.28577C9.56623 9.28577 9.3867 9.23131 9.234 9.12927C9.08129 9.02724 8.96228 8.88222 8.89199 8.71254C8.82171 8.54286 8.80332 8.35616 8.83915 8.17603C8.87498 7.99591 8.96342 7.83045 9.09328 7.70059C9.22315 7.57072 9.3886 7.48228 9.56873 7.44645C9.74886 7.41063 9.93556 7.42901 10.1052 7.4993C10.2749 7.56958 10.4199 7.6886 10.522 7.8413C10.624 7.994 10.6785 8.17353 10.6785 8.35719C10.6782 8.60339 10.5803 8.83943 10.4062 9.01352C10.2321 9.18761 9.99609 9.28552 9.74989 9.28577ZM12.0713 7.8929H11.5411C11.4388 7.49521 11.2075 7.14269 10.8833 6.89062C10.5592 6.63855 10.1605 6.50118 9.74989 6.50004V5.57146H12.0713V7.8929Z" fill="black"/>
</svg>
