<svg width="13" height="15" viewBox="0 0 13 15" fill="none" xmlns="http://www.w3.org/2000/svg">
<path d="M6.5 1.44444C5.73382 1.44444 4.99902 1.74881 4.45725 2.29058C3.91548 2.83235 3.61111 3.56715 3.61111 4.33333C3.61111 5.09951 3.91548 5.83431 4.45725 6.37609C4.99902 6.91786 5.73382 7.22222 6.5 7.22222C7.26618 7.22222 8.00098 6.91786 8.54275 6.37609C9.08453 5.83431 9.38889 5.09951 9.38889 4.33333C9.38889 3.56715 9.08453 2.83235 8.54275 2.29058C8.00098 1.74881 7.26618 1.44444 6.5 1.44444ZM2.16667 4.33333C2.16667 3.18406 2.62321 2.08186 3.43587 1.2692C4.24853 0.456546 5.35073 0 6.5 0C7.64927 0 8.75147 0.456546 9.56413 1.2692C10.3768 2.08186 10.8333 3.18406 10.8333 4.33333C10.8333 5.4826 10.3768 6.58481 9.56413 7.39746C8.75147 8.21012 7.64927 8.66667 6.5 8.66667C5.35073 8.66667 4.24853 8.21012 3.43587 7.39746C2.62321 6.58481 2.16667 5.4826 2.16667 4.33333ZM3.61111 11.5556C3.03648 11.5556 2.48538 11.7838 2.07905 12.1902C1.67272 12.5965 1.44444 13.1476 1.44444 13.7222C1.44444 13.9138 1.36835 14.0975 1.23291 14.2329C1.09747 14.3684 0.913767 14.4444 0.722222 14.4444C0.530677 14.4444 0.346977 14.3684 0.211534 14.2329C0.076091 14.0975 0 13.9138 0 13.7222C0 12.7645 0.380455 11.846 1.05767 11.1688C1.73488 10.4916 2.65338 10.1111 3.61111 10.1111H9.38889C10.3466 10.1111 11.2651 10.4916 11.9423 11.1688C12.6195 11.846 13 12.7645 13 13.7222C13 13.9138 12.9239 14.0975 12.7885 14.2329C12.653 14.3684 12.4693 14.4444 12.2778 14.4444C12.0862 14.4444 11.9025 14.3684 11.7671 14.2329C11.6316 14.0975 11.5556 13.9138 11.5556 13.7222C11.5556 13.1476 11.3273 12.5965 10.921 12.1902C10.5146 11.7838 9.96352 11.5556 9.38889 11.5556H3.61111Z" fill="black"/>
</svg>
