<svg width="13" height="13" viewBox="0 0 13 13" fill="none" xmlns="http://www.w3.org/2000/svg">
<path d="M5.85 4.55H7.15V3.25H5.85M6.5 11.7C3.6335 11.7 1.3 9.3665 1.3 6.5C1.3 3.6335 3.6335 1.3 6.5 1.3C9.3665 1.3 11.7 3.6335 11.7 6.5C11.7 9.3665 9.3665 11.7 6.5 11.7ZM6.5 0C5.64641 0 4.80117 0.168127 4.01256 0.494783C3.22394 0.821439 2.50739 1.30023 1.90381 1.90381C0.684819 3.12279 0 4.77609 0 6.5C0 8.22391 0.684819 9.87721 1.90381 11.0962C2.50739 11.6998 3.22394 12.1786 4.01256 12.5052C4.80117 12.8319 5.64641 13 6.5 13C8.22391 13 9.87721 12.3152 11.0962 11.0962C12.3152 9.87721 13 8.22391 13 6.5C13 5.64641 12.8319 4.80117 12.5052 4.01256C12.1786 3.22394 11.6998 2.50739 11.0962 1.90381C10.4926 1.30023 9.77606 0.821439 8.98744 0.494783C8.19883 0.168127 7.35359 0 6.5 0ZM5.85 9.75H7.15V5.85H5.85V9.75Z" fill="black"/>
</svg>
