<svg width="13" height="15" viewBox="0 0 13 15" fill="none" xmlns="http://www.w3.org/2000/svg">
<path d="M6.5 11.7812C5.57483 11.7812 4.67837 11.9519 3.81062 12.2931C2.94287 12.6338 2.13633 13.1557 1.391 13.8588V13.9059C1.43217 13.9368 1.4736 13.9601 1.51531 13.9758C1.55702 13.9915 1.60388 13.9994 1.65588 13.9994H11.3124C11.3644 13.9994 11.4089 13.9915 11.4457 13.9758C11.482 13.9601 11.521 13.9368 11.5627 13.9059V13.8588C10.8374 13.1557 10.0463 12.6336 9.18938 12.2923C8.33192 11.9511 7.43546 11.7804 6.5 11.7804M0.8125 13.2836C1.54375 12.5659 2.39362 12.0006 3.36212 11.5879C4.33062 11.1751 5.37658 10.9685 6.5 10.9679C7.62396 10.9679 8.67019 11.1746 9.63869 11.5879C10.6072 12.0012 11.4568 12.5664 12.1875 13.2836V3.12406C12.1875 2.99948 12.1355 2.88492 12.0315 2.78037C11.927 2.67637 11.8124 2.62438 11.6878 2.62438H1.31219C1.1876 2.62438 1.07304 2.67637 0.9685 2.78037C0.8645 2.88492 0.8125 2.99948 0.8125 3.12406V13.2836ZM6.5 8.71812C5.81858 8.71812 5.24198 8.48223 4.77019 8.01044C4.2984 7.53865 4.0625 6.96204 4.0625 6.28063C4.0625 5.59921 4.2984 5.0226 4.77019 4.55081C5.24198 4.07902 5.81858 3.84313 6.5 3.84313C7.18142 3.84313 7.75802 4.07902 8.22981 4.55081C8.7016 5.0226 8.9375 5.59921 8.9375 6.28063C8.9375 6.96204 8.7016 7.53865 8.22981 8.01044C7.75802 8.48223 7.18142 8.71812 6.5 8.71812ZM6.5 7.90562C6.94254 7.90562 7.32415 7.74556 7.64481 7.42544C7.96494 7.10477 8.125 6.72317 8.125 6.28063C8.125 5.83808 7.96494 5.45648 7.64481 5.13581C7.32415 4.81569 6.94254 4.65563 6.5 4.65563C6.05746 4.65563 5.67585 4.81569 5.35519 5.13581C5.03506 5.45648 4.875 5.83808 4.875 6.28063C4.875 6.72317 5.03506 7.10477 5.35519 7.42544C5.67585 7.74556 6.05746 7.90562 6.5 7.90562ZM1.31219 14.8119C0.938437 14.8119 0.626437 14.6867 0.376187 14.4365C0.125396 14.1857 0 13.8734 0 13.4997V3.12406C0 2.75031 0.125396 2.43831 0.376187 2.18806C0.626437 1.93727 0.938437 1.81188 1.31219 1.81188H2.75031V0H3.62537V1.81188H9.43719V0H10.2497V1.81188H11.6878C12.0616 1.81188 12.3736 1.93727 12.6238 2.18806C12.8746 2.43831 13 2.75031 13 3.12406V13.4997C13 13.8734 12.8749 14.1854 12.6246 14.4357C12.3738 14.6865 12.0616 14.8119 11.6878 14.8119H1.31219ZM6.5 13.9994H11.5619H1.39181H6.5Z" fill="black"/>
</svg>
