<svg width="13" height="15" viewBox="0 0 13 15" fill="none" xmlns="http://www.w3.org/2000/svg">
<path d="M9.53333 10.6364H9.44531C9.34149 10.1193 9.15868 9.64382 8.89688 9.20987C8.63507 8.77592 8.31684 8.40199 7.94219 8.08807C7.56753 7.77415 7.14549 7.52947 6.67604 7.35405C6.2066 7.17862 5.71458 7.09091 5.2 7.09091C4.80278 7.09091 4.4191 7.144 4.04896 7.25018C3.67882 7.35636 3.33351 7.50408 3.01302 7.69336C2.69253 7.88263 2.40139 8.11346 2.13958 8.38583C1.87778 8.6582 1.65208 8.95827 1.4625 9.28604C1.27292 9.61381 1.12622 9.96697 1.0224 10.3455C0.918576 10.7241 0.866667 11.1165 0.866667 11.5227H0C0 10.9688 0.0789931 10.4355 0.236979 9.92312C0.394965 9.41069 0.622917 8.9375 0.920833 8.50355C1.21875 8.0696 1.57083 7.68413 1.97708 7.34712C2.38333 7.01012 2.84375 6.74467 3.35833 6.55078C2.84826 6.20916 2.45104 5.77983 2.16667 5.26278C1.88229 4.74574 1.73785 4.1733 1.73333 3.54545C1.73333 3.05611 1.82361 2.59677 2.00417 2.16744C2.18472 1.7381 2.43073 1.36186 2.74219 1.03871C3.05365 0.715554 3.42153 0.461648 3.84583 0.276989C4.27014 0.0923295 4.72153 0 5.2 0C5.67847 0 6.1276 0.0923295 6.5474 0.276989C6.96719 0.461648 7.33507 0.713246 7.65104 1.03178C7.96701 1.35032 8.21528 1.72656 8.39583 2.16051C8.57639 2.59446 8.66667 3.05611 8.66667 3.54545C8.66667 3.85014 8.63056 4.1479 8.55833 4.43874C8.48611 4.72958 8.37778 5.00426 8.23333 5.26278C8.08889 5.52131 7.91962 5.75906 7.72552 5.97603C7.53142 6.193 7.30347 6.38459 7.04167 6.55078C7.54722 6.74929 8.01215 7.02166 8.43646 7.3679C8.86076 7.71413 9.22639 8.12038 9.53333 8.58665V10.6364ZM2.6 3.54545C2.6 3.91477 2.66771 4.2587 2.80313 4.57724C2.93854 4.89577 3.12361 5.17738 3.35833 5.42205C3.59306 5.66673 3.8684 5.85831 4.18437 5.9968C4.50035 6.1353 4.83889 6.20455 5.2 6.20455C5.5566 6.20455 5.89288 6.1353 6.20885 5.9968C6.52483 5.85831 6.80017 5.66903 7.0349 5.42898C7.26962 5.18892 7.45694 4.90732 7.59688 4.58416C7.73681 4.26101 7.80451 3.91477 7.8 3.54545C7.8 3.18075 7.73229 2.83683 7.59688 2.51367C7.46146 2.19052 7.27639 1.90891 7.04167 1.66886C6.80694 1.4288 6.52934 1.23722 6.20885 1.09411C5.88837 0.950994 5.55208 0.881747 5.2 0.886364C4.83889 0.886364 4.5026 0.955611 4.19115 1.09411C3.87969 1.2326 3.60434 1.42188 3.3651 1.66193C3.12587 1.90199 2.93854 2.1859 2.80313 2.51367C2.66771 2.84144 2.6 3.18537 2.6 3.54545ZM11.2667 11.5227H13V12.4091H11.2667V14.1818H10.4V12.4091H8.66667V11.5227H10.4V9.75H11.2667V11.5227Z" fill="black"/>
</svg>
