<svg width="14" height="17" viewBox="0 0 14 17" fill="none" xmlns="http://www.w3.org/2000/svg">
<path d="M7.35938 16.25C5.47708 15.776 3.92304 14.696 2.69725 13.0097C1.47146 11.3235 0.858834 9.45154 0.859375 7.39375V2.4375L7.35938 0L13.8594 2.4375V7.39375C13.8594 9.45208 13.2465 11.3244 12.0207 13.0106C10.7949 14.6968 9.24113 15.7766 7.35938 16.25ZM7.35938 9.75C7.80625 9.75 8.18894 9.59075 8.50744 9.27225C8.82594 8.95375 8.98492 8.57133 8.98438 8.125C8.98438 7.67812 8.82512 7.29544 8.50662 6.97694C8.18812 6.65844 7.80571 6.49946 7.35938 6.5C6.9125 6.5 6.52981 6.65925 6.21131 6.97775C5.89281 7.29625 5.73383 7.67867 5.73438 8.125C5.73438 8.57187 5.89363 8.95456 6.21213 9.27306C6.53063 9.59156 6.91304 9.75054 7.35938 9.75ZM7.35938 14.5437C7.96875 14.3542 8.53073 14.0766 9.04531 13.7109C9.5599 13.3453 10.0271 12.9052 10.4469 12.3906L8.98438 10.9281C8.74062 11.0771 8.47981 11.1889 8.20194 11.2637C7.92406 11.3384 7.64321 11.3755 7.35938 11.375C6.46562 11.375 5.70052 11.0568 5.06406 10.4203C4.4276 9.78385 4.10938 9.01875 4.10938 8.125C4.10938 7.23125 4.4276 6.46615 5.06406 5.82969C5.70052 5.19323 6.46562 4.875 7.35938 4.875C8.25313 4.875 9.01823 5.19323 9.65469 5.82969C10.2911 6.46615 10.6094 7.23125 10.6094 8.125C10.6094 8.42292 10.572 8.71081 10.4973 8.98869C10.4225 9.26656 10.3109 9.53388 10.1625 9.79063L11.3609 10.9891C11.6318 10.4474 11.8452 9.87512 12.0012 9.27225C12.1572 8.66937 12.2349 8.04321 12.2344 7.39375V3.55469L7.35938 1.72656L2.48438 3.55469V7.39375C2.48438 9.03229 2.94479 10.5219 3.86563 11.8625C4.78646 13.2031 5.95104 14.0969 7.35938 14.5437Z" fill="black"/>
</svg>
