<svg width="13" height="10" viewBox="0 0 13 10" fill="none" xmlns="http://www.w3.org/2000/svg">
<path d="M8.9375 6.175C8.80821 6.175 8.68421 6.22636 8.59279 6.31779C8.50136 6.40921 8.45 6.53321 8.45 6.6625C8.45 6.79179 8.50136 6.91579 8.59279 7.00721C8.68421 7.09864 8.80821 7.15 8.9375 7.15H10.5625C10.6918 7.15 10.8158 7.09864 10.9072 7.00721C10.9986 6.91579 11.05 6.79179 11.05 6.6625C11.05 6.53321 10.9986 6.40921 10.9072 6.31779C10.8158 6.22636 10.6918 6.175 10.5625 6.175H8.9375ZM0 2.1125C0 1.55223 0.222566 1.01491 0.618737 0.618737C1.01491 0.222566 1.55223 0 2.1125 0H10.8875C11.1649 0 11.4396 0.0546415 11.6959 0.160805C11.9522 0.266968 12.1851 0.422573 12.3813 0.618737C12.5774 0.814901 12.733 1.04778 12.8392 1.30408C12.9454 1.56038 13 1.83508 13 2.1125V6.9875C13 7.26492 12.9454 7.53962 12.8392 7.79592C12.733 8.05222 12.5774 8.2851 12.3813 8.48126C12.1851 8.67743 11.9522 8.83303 11.6959 8.9392C11.4396 9.04536 11.1649 9.1 10.8875 9.1H2.1125C1.55223 9.1 1.01491 8.87743 0.618737 8.48126C0.222566 8.08509 0 7.54777 0 6.9875V2.1125ZM12.025 2.925V2.1125C12.025 1.81082 11.9052 1.52149 11.6918 1.30817C11.4785 1.09484 11.1892 0.975 10.8875 0.975H2.1125C1.81082 0.975 1.52149 1.09484 1.30817 1.30817C1.09484 1.52149 0.975 1.81082 0.975 2.1125V2.925H12.025ZM0.975 3.9V6.9875C0.975 7.6154 1.4846 8.125 2.1125 8.125H10.8875C11.1892 8.125 11.4785 8.00516 11.6918 7.79183C11.9052 7.57851 12.025 7.28918 12.025 6.9875V3.9H0.975Z" fill="black"/>
</svg>
