<svg width="13" height="15" viewBox="0 0 13 15" fill="none" xmlns="http://www.w3.org/2000/svg">
<path d="M6.5 10.8127L7.07525 10.2375L5.37306 8.53125H9.18775V7.71875H5.37306L7.07525 6.0125L6.5 5.43725L3.81225 8.125L6.5 10.8127ZM1.31219 14.625C0.949271 14.625 0.639708 14.4972 0.3835 14.2415C0.127833 13.9858 0 13.6763 0 13.3128V2.93719C0 2.57427 0.127833 2.26471 0.3835 2.0085C0.639167 1.75283 0.948729 1.625 1.31219 1.625H5.13094C5.05727 1.21063 5.15667 0.836063 5.42913 0.501313C5.70158 0.167104 6.05854 0 6.5 0C6.95229 0 7.31467 0.167104 7.58713 0.501313C7.85904 0.836063 7.95302 1.21063 7.86906 1.625H11.6878C12.0507 1.625 12.3603 1.75283 12.6165 2.0085C12.8722 2.26417 13 2.57373 13 2.93719V13.3128C13 13.6757 12.8722 13.9853 12.6165 14.2415C12.3608 14.4972 12.0513 14.625 11.6878 14.625H1.31219ZM1.31219 13.8125H11.6878C11.8124 13.8125 11.927 13.7605 12.0315 13.6565C12.1355 13.552 12.1875 13.4374 12.1875 13.3128V2.93719C12.1875 2.8126 12.1355 2.69804 12.0315 2.5935C11.927 2.4895 11.8124 2.4375 11.6878 2.4375H1.31219C1.1876 2.4375 1.07304 2.4895 0.9685 2.5935C0.8645 2.69804 0.8125 2.8126 0.8125 2.93719V13.3128C0.8125 13.4374 0.8645 13.552 0.9685 13.6565C1.07304 13.7605 1.1876 13.8125 1.31219 13.8125ZM6.5 1.98412C6.67604 1.98412 6.82175 1.92671 6.93713 1.81188C7.0525 1.69704 7.10992 1.55133 7.10938 1.37475C7.10938 1.19871 7.05169 1.05327 6.93631 0.938437C6.82094 0.823604 6.6755 0.765917 6.5 0.765375C6.32396 0.765375 6.17852 0.823062 6.06369 0.938437C5.94885 1.05381 5.89117 1.19925 5.89062 1.37475C5.89062 1.55079 5.94831 1.6965 6.06369 1.81188C6.17906 1.92725 6.3245 1.98467 6.5 1.98412Z" fill="black"/>
</svg>
