<svg width="16" height="23" viewBox="0 0 16 23" fill="none" xmlns="http://www.w3.org/2000/svg">
<path d="M1 22V19.6667C1 18.429 1.49167 17.242 2.36683 16.3668C3.242 15.4917 4.42899 15 5.66667 15H10.3333C11.571 15 12.758 15.4917 13.6332 16.3668C14.5083 17.242 15 18.429 15 19.6667V22M3.33333 5.66667C3.33333 6.90434 3.825 8.09133 4.70017 8.9665C5.57534 9.84167 6.76232 10.3333 8 10.3333C9.23768 10.3333 10.4247 9.84167 11.2998 8.9665C12.175 8.09133 12.6667 6.90434 12.6667 5.66667C12.6667 4.42899 12.175 3.242 11.2998 2.36683C10.4247 1.49167 9.23768 1 8 1C6.76232 1 5.57534 1.49167 4.70017 2.36683C3.825 3.242 3.33333 4.42899 3.33333 5.66667Z" stroke="#129E88" stroke-width="2" stroke-linecap="round" stroke-linejoin="round"/>
</svg>
