<svg width="34" height="26" viewBox="0 0 34 26" fill="none" xmlns="http://www.w3.org/2000/svg">
<path d="M5.80373 13.8677H18.8175V15.8572H5.80373V13.8677ZM3.63477 8.89404H14.4796V10.8835H3.63477V8.89404Z" fill="#17C6AA"/>
<path d="M33.912 14.4706L30.6585 7.50744C30.5751 7.32847 30.4361 7.17593 30.2589 7.06876C30.0817 6.9616 29.8741 6.90452 29.6619 6.90463H26.4085V4.91515C26.4085 4.65133 26.2942 4.39831 26.0908 4.21176C25.8875 4.02521 25.6116 3.92041 25.324 3.92041H7.97231V5.90989H24.2395V18.3998C23.7453 18.6631 23.3129 19.0134 22.967 19.4306C22.6212 19.8479 22.3689 20.3238 22.2245 20.831H15.4097C15.1457 19.8933 14.518 19.0761 13.6441 18.5325C12.7703 17.989 11.7103 17.7565 10.6629 17.8785C9.6155 18.0005 8.65257 18.4687 7.95461 19.1954C7.25665 19.9221 6.87158 20.8573 6.87158 21.8257C6.87158 22.7942 7.25665 23.7294 7.95461 24.4561C8.65257 25.1827 9.6155 25.651 10.6629 25.773C11.7103 25.895 12.7703 25.6625 13.6441 25.1189C14.518 24.5754 15.1457 23.7582 15.4097 22.8205H22.2245C22.4605 23.6742 23 24.4314 23.7578 24.9723C24.5155 25.5131 25.4483 25.8068 26.4085 25.8068C27.3686 25.8068 28.3014 25.5131 29.0592 24.9723C29.817 24.4314 30.3565 23.6742 30.5924 22.8205H32.9153C33.203 22.8205 33.4788 22.7157 33.6822 22.5291C33.8856 22.3426 33.9998 22.0896 33.9998 21.8257V14.8626C33.9999 14.7278 33.97 14.5944 33.912 14.4706ZM11.2258 23.8152C10.7968 23.8152 10.3774 23.6985 10.0207 23.4799C9.66406 23.2613 9.38606 22.9506 9.22189 22.5871C9.05773 22.2235 9.01478 21.8235 9.09847 21.4376C9.18216 21.0517 9.38873 20.6972 9.69206 20.419C9.9954 20.1407 10.3819 19.9512 10.8026 19.8745C11.2233 19.7977 11.6594 19.8371 12.0558 19.9877C12.4521 20.1383 12.7908 20.3933 13.0292 20.7204C13.2675 21.0476 13.3947 21.4323 13.3947 21.8257C13.3941 22.3532 13.1654 22.8589 12.7588 23.2319C12.3522 23.6049 11.8008 23.8147 11.2258 23.8152ZM26.4085 8.89411H28.9462L31.2713 13.8678H26.4085V8.89411ZM26.4085 23.8152C25.9795 23.8152 25.5601 23.6985 25.2035 23.4799C24.8468 23.2613 24.5688 22.9506 24.4046 22.5871C24.2404 22.2235 24.1975 21.8235 24.2812 21.4376C24.3649 21.0517 24.5714 20.6972 24.8748 20.419C25.1781 20.1407 25.5646 19.9512 25.9853 19.8745C26.4061 19.7977 26.8422 19.8371 27.2385 19.9877C27.6348 20.1383 27.9736 20.3933 28.2119 20.7204C28.4502 21.0476 28.5774 21.4323 28.5774 21.8257C28.5769 22.3532 28.3482 22.8589 27.9415 23.2319C27.5349 23.6049 26.9835 23.8147 26.4085 23.8152ZM31.8309 20.831H30.5924C30.3535 19.9789 29.8131 19.2237 29.0559 18.6836C28.2988 18.1435 27.3676 17.8492 26.4085 17.8468V15.8573H31.8309V20.831Z" fill="#17C6AA"/>
<circle cx="6.87158" cy="6.23047" r="5.64502" fill="white" stroke="#17C6AA"/>
<path d="M4.61328 5.51221L5.14027 7.47896" stroke="#17C6AA" stroke-width="0.8" stroke-linecap="round"/>
<path d="M5.16748 7.521L9.12988 4.93921" stroke="#17C6AA" stroke-width="0.8" stroke-linecap="round"/>
</svg>
