<svg width="27" height="27" viewBox="0 0 27 27" fill="none" xmlns="http://www.w3.org/2000/svg">
<path d="M25.1113 25.0234L19.4395 19.3516M19.4395 19.3516C20.4097 18.3814 21.1793 17.2296 21.7043 15.962C22.2294 14.6944 22.4996 13.3358 22.4996 11.9637C22.4996 10.5916 22.2294 9.23301 21.7043 7.96539C21.1793 6.69777 20.4097 5.54599 19.4395 4.57579C18.4693 3.6056 17.3175 2.836 16.0499 2.31094C14.7823 1.78587 13.4236 1.51562 12.0516 1.51563C10.6795 1.51563 9.3209 1.78587 8.05328 2.31094C6.78566 2.836 5.63388 3.6056 4.66368 4.57579C2.70429 6.53519 1.60352 9.19269 1.60352 11.9637C1.60352 14.7347 2.70429 17.3922 4.66368 19.3516C6.62308 21.311 9.28058 22.4118 12.0516 22.4118C14.8226 22.4118 17.4801 21.311 19.4395 19.3516Z" stroke="black" stroke-width="2" stroke-linecap="round" stroke-linejoin="round"/>
</svg>
