<svg width="15" height="15" viewBox="0 0 15 15" fill="none" xmlns="http://www.w3.org/2000/svg">
<path d="M11.1121 5.33375C11.1121 4.95063 10.9599 4.58319 10.689 4.31228C10.4181 4.04137 10.0506 3.88917 9.66751 3.88917M9.66751 9.66751C10.5791 9.66724 11.4673 9.37955 12.2059 8.84536C12.9446 8.31116 13.4959 7.55767 13.7816 6.69204C14.0673 5.82642 14.0728 4.89275 13.7973 4.02383C13.5218 3.15492 12.9793 2.39501 12.247 1.85218C11.5147 1.30936 10.6298 1.01127 9.71834 1.00031C8.80686 0.989355 7.91512 1.26609 7.16998 1.79115C6.42483 2.31621 5.86422 3.06286 5.56789 3.9249C5.27155 4.78694 5.25458 5.72047 5.51938 6.59271L5.33375 6.77834L1.21163 10.9005C1.07617 11.0359 1.00004 11.2196 1 11.4111V13.279C1 13.4705 1.0761 13.6543 1.21155 13.7897C1.34701 13.9252 1.53073 14.0013 1.72229 14.0013H3.16688C3.35844 14.0013 3.54216 13.9252 3.67762 13.7897C3.81307 13.6543 3.88917 13.4705 3.88917 13.279C3.88917 13.0874 3.96527 12.9037 4.10072 12.7682C4.23618 12.6328 4.4199 12.5567 4.61146 12.5567C4.80303 12.5567 4.98674 12.4806 5.1222 12.3451C5.25766 12.2097 5.33375 12.026 5.33375 11.8344C5.33375 11.6428 5.40985 11.4591 5.54531 11.3236C5.68077 11.1882 5.86448 11.1121 6.05605 11.1121H6.47931C6.67086 11.1121 6.85455 11.0359 6.98997 10.9005L8.22292 9.66751L8.40855 9.48188C8.81678 9.60538 9.24101 9.66793 9.66751 9.66751Z" stroke="#129E88" stroke-width="1.5" stroke-linecap="round" stroke-linejoin="round"/>
</svg>
