<svg width="20" height="18" viewBox="0 0 20 18" fill="none" xmlns="http://www.w3.org/2000/svg">
<path d="M7.17937 17.4595L5.60169 14.8023L2.6124 14.138L2.90303 11.0657L0.868652 8.74072L2.90303 6.41572L2.6124 3.3434L5.60169 2.67912L7.17937 0.0219727L10.0026 1.22599L12.8258 0.0219727L14.4035 2.67912L17.3928 3.3434L17.1021 6.41572L19.1365 8.74072L17.1021 11.0657L17.3928 14.138L14.4035 14.8023L12.8258 17.4595L10.0026 16.2555L7.17937 17.4595ZM7.88517 15.3421L10.0026 14.4287L12.1615 15.3421L13.324 13.3492L15.6075 12.8095L15.3999 10.4845L16.9361 8.74072L15.3999 6.95545L15.6075 4.63046L13.324 4.13224L12.12 2.13938L10.0026 3.05278L7.84365 2.13938L6.68115 4.13224L4.39767 4.63046L4.60526 6.95545L3.0691 8.74072L4.60526 10.4845L4.39767 12.851L6.68115 13.3492L7.88517 15.3421ZM9.13071 11.6885L13.8222 6.99697L12.6597 5.79295L9.13071 9.32197L7.34544 7.57822L6.18294 8.74072L9.13071 11.6885Z" fill="#D20D00"/>
</svg>
